<svg width="441" height="412" viewBox="0 0 441 412" fill="none" xmlns="http://www.w3.org/2000/svg">
<path d="M198.892 266.971L-81.8086 429.188L201.203 592.367L482.481 429.959L198.892 266.971Z" fill="#F1F9F6"/>
<path d="M405.802 412.424C408.307 413.772 408.307 416.084 405.802 417.433L373.629 436.121C371.317 437.469 367.272 437.469 364.959 436.121L332.593 417.433C330.089 416.084 330.089 413.772 332.593 412.424L364.767 393.736C367.079 392.387 371.124 392.387 373.437 393.736L405.802 412.424Z" fill="#97D6C3"/>
<path d="M407.547 375.821C407.547 376.014 407.354 376.207 407.161 376.399C407.161 376.399 407.161 376.399 407.161 376.592C406.969 376.785 406.777 376.977 406.584 377.17C406.391 377.363 406.391 377.363 406.199 377.556C406.006 377.556 406.006 377.748 405.813 377.748L373.64 396.436C373.254 396.629 372.869 396.821 372.483 397.014C372.291 397.014 372.098 397.207 372.098 397.207C371.905 397.207 371.713 397.399 371.52 397.399C371.327 397.399 370.942 397.592 370.749 397.592H370.557C370.172 397.592 369.787 397.592 369.594 397.592H369.401C369.016 397.592 368.631 397.592 368.438 397.592H368.245C367.86 397.592 367.667 397.399 367.282 397.399H367.089C366.704 397.399 366.511 397.207 366.318 397.207H366.126C365.74 397.014 365.548 397.014 365.162 396.821L332.797 378.134C331.641 377.363 331.062 376.592 331.062 375.629V388.151C331.062 389.115 331.641 390.078 332.797 390.656L365.162 409.344C365.355 409.537 365.74 409.729 366.126 409.729H366.318C366.511 409.729 366.704 409.922 366.896 409.922C367.089 409.922 367.089 409.922 367.282 409.922H367.475H367.667C367.86 409.922 368.053 409.922 368.245 410.115H368.438H368.631H368.823C369.016 410.115 369.209 410.115 369.401 410.115H369.594H369.787H369.979C370.172 410.115 370.365 410.115 370.749 410.115H370.942C371.135 410.115 371.327 410.115 371.52 410.115H371.713C371.905 410.115 372.098 409.922 372.291 409.922C372.483 409.922 372.483 409.922 372.676 409.922C372.676 409.922 372.676 409.922 372.869 409.922C373.254 409.729 373.64 409.537 374.025 409.344L406.199 390.656C406.391 390.656 406.391 390.464 406.584 390.464C406.777 390.271 406.97 390.271 406.97 390.078C407.161 389.886 407.161 389.886 407.354 389.693C407.354 389.693 407.354 389.693 407.354 389.5C407.354 389.5 407.354 389.5 407.354 389.307C407.354 389.307 407.354 389.115 407.547 389.115C407.547 388.922 407.739 388.922 407.739 388.729V388.537C407.739 388.344 407.739 388.344 407.739 388.151V375.629C407.739 375.436 407.739 375.629 407.547 375.821Z" fill="#333333"/>
<path d="M405.802 372.74C408.307 374.089 408.307 376.4 405.802 377.749L373.629 396.437C371.317 397.786 367.272 397.786 364.959 396.437L332.593 377.749C330.089 376.4 330.089 374.089 332.593 372.74L364.767 354.053C367.079 352.704 371.124 352.704 373.437 354.053L405.802 372.74Z" fill="#D05F0D"/>
<path d="M75.7827 414.741C78.2876 416.089 78.2876 418.401 75.7827 419.75L43.6098 438.438C41.2976 439.786 37.2521 439.786 34.9399 438.438L2.57372 419.75C0.0691769 418.401 0.0691769 416.089 2.57372 414.741L34.7472 396.054C37.0595 394.705 41.1049 394.705 43.4171 396.054L75.7827 414.741Z" fill="#97D6C3"/>
<path d="M77.3165 377.944C77.3165 378.137 77.1238 378.33 76.9311 378.522C76.9311 378.522 76.9311 378.522 76.9311 378.715C76.7384 378.907 76.5457 379.1 76.3531 379.292C76.1604 379.485 76.1604 379.485 75.9677 379.678C75.775 379.678 75.775 379.87 75.5823 379.87L43.4095 398.558C43.0241 398.751 42.6387 398.943 42.2533 399.136C42.0606 399.136 41.8679 399.329 41.8679 399.329C41.6753 399.329 41.4826 399.521 41.2899 399.521C41.0972 399.521 40.7118 399.714 40.5191 399.714H40.3264C39.9411 399.714 39.5557 399.714 39.363 399.714H39.1703C38.7849 399.714 38.3996 399.714 38.2069 399.714H38.0142C37.6288 399.714 37.4371 399.521 37.0518 399.521H36.8591C36.4737 399.521 36.281 399.329 36.0883 399.329H35.8956C35.5102 399.136 35.3176 399.136 34.9322 398.943L2.56592 380.256C1.40999 379.485 0.832031 378.715 0.832031 377.752V390.274C0.832031 391.237 1.40999 392.2 2.56592 392.778L34.9322 411.466C35.1249 411.659 35.5102 411.851 35.8956 411.851H36.0883C36.281 411.851 36.4737 412.044 36.6664 412.044C36.8591 412.044 36.8591 412.044 37.0518 412.044H37.2444H37.4371C37.6288 412.044 37.8215 412.044 38.0142 412.237H38.2069H38.3995H38.5922C38.7849 412.237 38.9776 412.237 39.1703 412.237H39.363H39.5557H39.7484C39.9411 412.237 40.1337 412.237 40.5191 412.237H40.7118C40.9045 412.237 41.0972 412.237 41.2899 412.237H41.4826C41.6753 412.237 41.8679 412.044 42.0606 412.044C42.2533 412.044 42.2533 412.044 42.446 412.044C42.446 412.044 42.446 412.044 42.6387 412.044C43.0241 411.851 43.4094 411.659 43.7938 411.466L75.9677 392.778C76.1604 392.778 76.1604 392.586 76.3531 392.586C76.5457 392.393 76.7384 392.393 76.7384 392.2C76.9311 392.008 76.9311 392.008 77.1238 391.815C77.1238 391.815 77.1238 391.815 77.1238 391.622C77.1238 391.622 77.1238 391.622 77.1238 391.43C77.1238 391.43 77.1238 391.237 77.3165 391.237C77.3165 391.044 77.5092 391.044 77.5092 390.852V390.66C77.5092 390.467 77.5092 390.467 77.5092 390.274V377.752C77.5092 377.559 77.5092 377.752 77.3165 377.944Z" fill="#333333"/>
<path d="M75.7827 374.863C78.2876 376.211 78.2876 378.524 75.7827 379.872L43.6098 398.559C41.2976 399.908 37.2521 399.908 34.9399 398.559L2.57372 379.872C0.0691769 378.524 0.0691769 376.211 2.57372 374.863L34.7472 356.175C37.0595 354.827 41.1049 354.827 43.4171 356.175L75.7827 374.863Z" fill="#D05F0D"/>
<path d="M196.782 381.604L304.091 443.446L196.011 505.866L88.8945 444.024L196.782 381.604Z" fill="#D5EFE7"/>
<path d="M196.782 355.594L304.091 417.437L196.011 480.05L88.8945 418.015L196.782 355.594Z" fill="#D5EFE7"/>
<path d="M88.8945 392.005V407.611L196.011 469.452V454.04L88.8945 392.005Z" fill="#D5EFE7"/>
<path d="M304.088 391.428L303.895 407.032L196.008 469.453V454.04L304.088 391.428Z" fill="#D5EFE7"/>
<path d="M196.782 329.779L304.091 391.429L196.011 454.042L88.8945 392.007L196.782 329.779Z" fill="#D5EFE7"/>
<path d="M88.8945 392.008V407.614L196.011 469.455V454.043L88.8945 392.008Z" fill="#4E5A56"/>
<path d="M304.088 391.43L303.895 407.034L196.008 469.455V454.042L304.088 391.43Z" fill="#333333"/>
<path d="M88.8945 366V381.606L196.011 443.64V428.035L88.8945 366Z" fill="#D5EFE7"/>
<path d="M304.088 365.613L303.895 381.219L196.008 443.64V428.034L304.088 365.613Z" fill="#D5EFE7"/>
<path d="M196.782 303.771L304.091 365.614L196.011 428.035L88.8945 365.999L196.782 303.771Z" fill="#D5EFE7"/>
<path d="M88.8945 366V381.606L196.011 443.64V428.035L88.8945 366Z" fill="#4E5A56"/>
<path d="M304.088 365.613L303.895 381.219L196.008 443.64V428.034L304.088 365.613Z" fill="#333333"/>
<path d="M88.8945 340.186V355.598L196.011 417.633V402.028L88.8945 340.186Z" fill="#D5EFE7"/>
<path d="M304.088 339.606L303.895 355.211L196.008 417.632V402.026L304.088 339.606Z" fill="#D5EFE7"/>
<path d="M88.8945 340.183V355.596L196.011 417.63V402.025L88.8945 340.183Z" fill="#4E5A56"/>
<path d="M304.088 339.604L303.895 355.208L196.008 417.629V402.023L304.088 339.604Z" fill="#333333"/>
<path d="M264.202 330.551C266.9 332.092 266.9 334.597 264.202 336.139L201.397 372.551C198.699 374.091 194.461 374.091 191.956 372.551L128.765 336.139C126.068 334.597 126.068 332.092 128.765 330.743L191.571 294.332C194.268 292.79 198.506 292.79 201.011 294.332L264.202 330.551Z" fill="#97D6C3"/>
<mask id="mask0_1447_55906" style="mask-type:luminance" maskUnits="userSpaceOnUse" x="264" y="333" width="3" height="11">
<path d="M266.137 333.248V340.376C266.137 341.34 265.559 342.303 264.211 343.074V335.946C265.559 335.175 266.137 334.211 266.137 333.248Z" fill="white"/>
</mask>
<g mask="url(#mask0_1447_55906)">
<path d="M266.118 333.634V340.762C266.118 340.955 266.118 340.955 265.926 341.148V334.019C266.118 334.019 266.118 333.826 266.118 333.634Z" fill="#045137"/>
<path d="M265.931 334.02V341.148C265.931 341.341 265.738 341.341 265.738 341.533V334.405C265.931 334.405 265.931 334.212 265.931 334.02Z" fill="#045137"/>
<path d="M265.743 334.402V341.531C265.743 341.723 265.551 341.723 265.551 341.916V334.788C265.743 334.788 265.743 334.595 265.743 334.402Z" fill="#045137"/>
<path d="M265.549 334.788V341.917C265.357 342.109 265.357 342.302 265.164 342.302V335.173C265.357 335.173 265.357 334.981 265.549 334.788Z" fill="#045137"/>
<path d="M265.165 335.366V342.495C264.973 342.687 264.587 342.88 264.395 343.073V335.944C264.587 335.752 264.973 335.559 265.165 335.366Z" fill="#045137"/>
</g>
<mask id="mask1_1447_55906" style="mask-type:luminance" maskUnits="userSpaceOnUse" x="126" y="333" width="3" height="11">
<path d="M126.859 340.376V333.248C126.859 334.211 127.437 335.175 128.786 335.946V343.074C127.437 342.303 126.859 341.34 126.859 340.376Z" fill="white"/>
</mask>
<g mask="url(#mask1_1447_55906)">
<path d="M128.786 335.946V343.074C127.437 342.303 126.859 341.34 126.859 340.376V333.248C126.859 334.211 127.437 335.175 128.786 335.946Z" fill="#045137"/>
</g>
<path d="M264.205 335.946V343.075L201.398 379.487V372.551L264.205 335.946Z" fill="#333333"/>
<path d="M191.957 372.55V379.486L128.766 343.074V335.945L191.957 372.55Z" fill="#4E5A56"/>
<mask id="mask2_1447_55906" style="mask-type:luminance" maskUnits="userSpaceOnUse" x="191" y="372" width="11" height="9">
<path d="M201.425 372.551V379.679C198.727 381.221 194.489 381.221 191.984 379.679V372.551C194.682 373.9 198.92 373.9 201.425 372.551Z" fill="white"/>
</mask>
<g mask="url(#mask2_1447_55906)">
<path d="M201.428 372.551V379.679C201.043 379.872 200.465 380.065 199.887 380.257V373.129C200.465 372.936 201.043 372.743 201.428 372.551Z" fill="#045137"/>
<path d="M200.074 373.13V380.258C199.69 380.451 199.305 380.451 198.727 380.644V373.515C199.112 373.323 199.69 373.323 200.074 373.13Z" fill="#045137"/>
<path d="M198.732 373.516V380.644C198.539 380.644 198.154 380.644 197.961 380.837V373.708C198.154 373.516 198.539 373.516 198.732 373.516Z" fill="#045137"/>
<path d="M197.954 373.516V380.644C197.762 380.644 197.376 380.644 197.184 380.644V373.516C197.376 373.516 197.569 373.516 197.954 373.516Z" fill="#045137"/>
<path d="M197.189 373.516V380.644C196.996 380.644 196.803 380.644 196.418 380.644V373.516C196.611 373.708 196.996 373.708 197.189 373.516Z" fill="#045137"/>
<path d="M196.418 373.515V380.643C196.225 380.643 196.033 380.643 195.84 380.643V373.515C196.033 373.515 196.225 373.515 196.418 373.515Z" fill="#045137"/>
<path d="M195.836 373.516V380.644C195.643 380.644 195.451 380.644 195.258 380.644V373.516C195.451 373.516 195.643 373.516 195.836 373.516Z" fill="#045137"/>
<path d="M195.066 373.517V380.645C194.874 380.645 194.681 380.645 194.488 380.453V373.324C194.681 373.517 194.874 373.517 195.066 373.517Z" fill="#045137"/>
<path d="M194.488 373.323V380.451C194.296 380.451 194.103 380.258 193.719 380.258V373.13C194.103 373.323 194.296 373.323 194.488 373.323Z" fill="#045137"/>
<path d="M193.716 373.128V380.257C193.523 380.257 193.138 380.064 192.945 380.064V372.936C193.138 373.128 193.523 373.128 193.716 373.128Z" fill="#045137"/>
<path d="M192.948 372.936V380.065C192.562 379.872 192.37 379.679 191.984 379.679V372.551C192.37 372.743 192.562 372.743 192.948 372.936Z" fill="#045137"/>
</g>
<path d="M226.247 313.981C242.623 323.422 242.623 338.834 226.439 348.274C210.256 357.714 183.67 357.714 167.294 348.274C150.919 338.834 150.919 323.422 167.101 313.981C183.284 304.541 209.678 304.541 226.247 313.981Z" fill="#CBEBE1"/>
<path d="M167.112 320.532C183.296 311.092 209.882 311.092 226.258 320.532C233 324.384 237.047 329.394 238.203 334.403C239.936 327.082 235.89 319.568 226.258 313.981C209.882 304.541 183.488 304.541 167.112 313.981C157.672 319.568 153.627 327.082 155.36 334.211C156.516 329.202 160.369 324.384 167.112 320.532Z" fill="#333333"/>
<path d="M361.88 200.091L320.681 216.546L361.88 200.101L344.212 247.651L313.708 285.078L270.735 313.084L270.399 313.298L217.241 327.663L161.953 321.393L149.168 319.935H149.138L101.822 294.294L66.669 257.704V257.694L47.2269 220.614L39.8456 174.634L38.041 163.368L37.1133 157.577L47.9507 107.702L74.8863 61.0494L113.73 24.8668L167.662 4.02792L213.877 0.908203L269.226 14.9265H269.237V14.9367L310.017 41.434L342.937 81.2766L355.528 123.587L365.703 157.812L361.88 200.091Z" fill="#23322D" style="mix-blend-mode:multiply"/>
<path d="M193.019 245.083L193.692 252.525L192.397 255.064L187.269 265.137L182.141 263.006L172.088 268.99V276.474L165.033 287.811L158.182 285.884L161.822 294.009L157.55 297.863L172.873 318.121L160.088 316.663L160.068 316.653L160.048 316.632L146.213 306.203L137.873 292.521L126.322 277.116L123.712 262.578L122.254 254.452L117.768 253.025L104.718 248.886L102.363 236.478L94.6355 233.134L89.5379 230.922L82.4727 215.741L82.7071 215.435L91.4546 204.19L89.6399 193.567L88.8956 189.213L91.6687 182.801L103.648 177.244L112.63 184.085H128.035L143.644 196.707L150.699 193.067L159.344 198.623L159.681 198.837L160.119 200.285L160.139 200.336L160.19 200.53L163.963 212.958L170.171 214.079L177.002 215.313L179.571 219.585L191.765 216.812L204.815 230.922L192.835 243.115L193.019 245.083Z" fill="#D05F0D"/>
<path d="M344.45 205.127V205.137L326.782 252.688L296.278 290.114L253.305 318.12L266.936 298.647L264.887 292.275L261.798 282.702L273.267 273.945L281.342 267.776L279.802 259.661L278.548 253.055L276.265 240.994L275.684 237.945L288.54 224.06L268.741 212.223L258.933 220.991L256.649 223.03L248.931 219.431L242.437 217.412L225.788 212.223L229.907 204.516L229.693 204.271L216.531 189.08L219.111 182.107L221.67 175.194L217.867 167.578L216.531 164.907L223.097 154.366L233.506 137.645H243.273L245.333 120.671L256.649 115.522L259.218 118.101L264.816 116.603L283.513 111.597L295.748 108.324V122.21L311.428 131.355V131.365L314.262 133.017L318.891 123.24L333.296 131.987L338.098 128.623L348.273 162.848L344.45 205.127Z" fill="#D05F0D"/>
<path d="M361.876 200.927V200.937L344.207 248.487L313.704 285.914L270.731 313.92L284.362 294.447L282.313 288.075L279.224 278.502L290.693 269.744L298.768 263.576L297.228 255.461L295.974 248.854L293.69 236.794L293.109 233.745L305.965 219.859L286.166 208.023L276.359 216.791L274.075 218.83L266.357 215.231L259.863 213.212L243.214 208.023L247.333 200.315L247.119 200.071L233.957 184.88L236.536 177.906L239.095 170.994L235.293 163.378L233.957 160.707L240.523 150.165L250.932 133.445H260.699L262.758 116.47L274.075 111.322L276.644 113.901L282.241 112.402L300.939 107.397L313.173 104.124V118.01L328.854 127.155V127.165L331.688 128.817L336.316 119.04L350.722 127.787L355.524 124.423L365.699 158.648L361.876 200.927Z" fill="#D5EFE7"/>
<path d="M289.627 52.3935L274.375 63.0577L257.645 59.5301L239.518 97.2522L220.463 94.5709L209.544 117.897L183.607 140.714L146.395 114.288L101.822 117.897L38.5712 166.651L37.1133 157.577L101.822 107.702L146.395 104.093L183.607 130.519L209.544 107.702L220.463 84.3757L239.518 87.0571L257.645 49.335L274.375 52.8625L284.621 45.6953L289.627 52.3935Z" fill="#D05F0D"/>
<path d="M47.9507 107.702L74.8863 61.0596L113.73 24.877L167.662 4.02792L213.877 0.908203L269.237 14.9265L289.627 42.1986L274.375 52.8627L257.645 49.3352L239.528 87.0573L220.463 84.376L209.544 107.702L183.607 130.519L146.395 104.093L101.822 107.702L37.1133 157.577L47.9507 107.702Z" fill="#D5EFE7"/>
<path d="M289.623 42.1992V52.3944L274.371 63.0585V52.8634L289.623 42.1992Z" fill="#D05F0D"/>
<path d="M185.585 248.508L186.258 255.951L183.199 261.11L179.55 268.277L174.707 266.432L164.654 272.416V279.899L157.599 291.236L150.748 289.31L154.541 296.395L150.116 301.289L165.44 321.547L152.655 320.089L152.634 320.079L152.614 320.058L138.779 309.628L130.44 295.947L118.888 280.542L116.278 266.003L114.821 257.878L110.335 256.451L97.2849 252.311L94.9298 239.904L87.2019 236.56L82.1043 234.347L75.0391 219.167L75.2736 218.861L84.021 207.616L82.2063 196.992L81.462 192.639L84.2351 186.226L96.2144 180.67L105.196 187.511H120.601L136.21 200.132L143.265 196.493L151.911 202.049L152.247 202.263L152.685 203.711L152.706 203.762L152.757 203.956L156.529 216.384L162.738 217.505L169.569 218.739L172.138 223.01L184.331 220.237L197.381 234.347L185.402 246.541L185.585 248.508Z" fill="#D5EFE7"/>
<path d="M201.406 372.551V379.679C198.708 381.221 194.47 381.221 191.965 379.679V372.551C194.662 373.9 198.901 373.9 201.406 372.551Z" fill="#333333"/>
<path d="M266.141 333.248V340.376C266.141 341.34 265.563 342.303 264.215 343.074V335.946C265.563 335.175 266.141 334.211 266.141 333.248Z" fill="#333333"/>
<path d="M126.848 340.376V333.248C126.848 334.211 127.426 335.175 128.775 335.946V343.074C127.426 342.303 126.848 341.34 126.848 340.376Z" fill="#4E5A56"/>
<g style="mix-blend-mode:overlay">
<path d="M2.31566 300.149C3.88572 302.534 6.11846 303.605 7.55597 302.646C12.2356 299.506 23.96 294.46 43.0147 304.553C43.2084 304.655 43.4021 304.757 43.606 304.869C63.558 315.686 75.7106 333.762 80.696 342.499C82.2967 345.303 84.876 346.995 86.7927 346.486C89.1886 345.843 89.5352 342.081 87.5166 338.574C81.2466 327.716 66.8204 306.643 43.7488 294.388C43.5245 294.266 43.29 294.144 43.0657 294.032C21.2277 282.715 7.65792 288.516 1.98942 292.38C0.246045 293.573 0.388778 297.223 2.30547 300.138L2.31566 300.149Z" fill="#333333"/>
<path d="M13.4049 321.099C14.9546 323.556 17.2179 324.769 18.7268 323.933C22.6417 321.782 31.0731 318.979 42.767 325.249C42.8995 325.32 43.0422 325.402 43.185 325.473C54.8584 331.906 62.9126 343.896 66.7256 350.594C68.2854 353.326 70.7731 354.967 72.6082 354.478C74.9327 353.856 75.2691 350.135 73.2709 346.679C68.1835 337.85 57.7538 322.649 42.716 314.717C28.2185 307.111 18.0641 310.517 13.2214 313.3C11.3863 314.36 11.4678 318.03 13.3845 321.058L13.4049 321.099Z" fill="#333333"/>
<path d="M61.255 363.511H61.2754C63.6508 363.032 64.0281 359.311 62.0604 355.793C58.2984 349.085 51.6104 339.236 42.659 334.22C34.4111 329.592 28.345 331.04 24.8481 332.895C22.86 333.955 23.0028 337.901 25.1641 341.061L25.1845 341.082C26.775 343.406 28.9567 344.518 30.4452 343.753C32.8615 342.509 37.0823 341.49 42.608 344.65C48.4499 347.994 53.0581 354.937 55.6476 359.586C57.1157 362.227 59.481 363.858 61.2652 363.501L61.255 363.511Z" fill="#333333"/>
<path d="M33.09 359.332C33.0594 365.215 37.3006 372.565 42.6123 375.767C47.9851 379.009 52.4098 376.806 52.4506 370.802C52.4914 364.797 48.1075 357.354 42.7346 354.234C37.4128 351.145 33.1206 353.439 33.09 359.332Z" fill="#333333"/>
</g>
<path d="M30.1684 357.569L30.199 357.548C31.7996 357.201 33.7571 357.569 35.8879 358.792C41.3525 361.922 45.7874 369.405 45.7466 375.451C45.7262 377.775 45.0534 379.529 43.9115 380.64L43.8911 380.65C43.2998 381.221 41.9948 381.935 41.1894 382.139L37.825 383.984L24.3164 360.668L28.0172 358.68C28.6188 358.129 29.3324 357.752 30.148 357.558L30.1684 357.569Z" fill="#97D6C3"/>
<path d="M17.7426 337.372C21.2905 335.486 27.4382 334.008 35.8186 338.636C44.9025 343.663 51.6823 353.562 55.5054 360.301C57.5037 363.839 57.1163 367.591 54.7102 368.08L53.4562 368.773L50.1326 370.629L29.4058 347.108C26.8672 346.925 24.8384 347.577 23.4111 348.301C21.9022 349.076 19.6899 347.965 18.079 345.63L18.0586 345.61C17.4775 344.764 17.0391 343.856 18.4766 341.827L12.7266 340.594L17.7324 337.382L17.7426 337.372Z" fill="#97D6C3"/>
<path d="M6.73106 317.001C11.9102 314.239 21.9116 311.618 35.8892 318.847C51.1514 326.768 61.7339 342.122 66.8927 351.002C68.9113 354.479 68.5749 358.261 66.2096 358.904C66.0363 358.955 64.7721 359.74 64.5886 359.75L61.0611 361.717L44.7284 339.492L22.1461 325.79C17.3442 325.749 13.7351 327.166 11.533 328.379C10.0037 329.225 7.70979 328.012 6.13974 325.545L6.10915 325.504C6.10915 325.504 6.05817 325.413 6.02759 325.372L4.57988 325.331L1.66406 320.539L4.5289 318.317L6.72086 317.022L6.73106 317.001Z" fill="#97D6C3"/>
<path d="M-9.53516 299.609L-5.41631 296.642C0.333754 292.727 14.1074 286.814 36.2513 298.131C36.4756 298.243 36.7101 298.365 36.9446 298.487C60.3526 310.732 75.0031 331.917 81.3649 342.836C82.9451 345.548 83.3631 347.985 82.2314 349.463L81.0998 350.605L80.4473 350.972C80.2026 351.166 79.1627 351.676 78.8466 351.767L75.0337 353.786L68.2947 344.508L40.5333 312.587L24.9856 304.227C12.2009 300.72 3.97342 304.441 0.221608 306.97C-1.2363 307.949 -3.49962 306.878 -5.09007 304.482C-5.8649 303.3 -6.35427 302.015 -6.54798 300.812L-9.53516 299.629V299.609Z" fill="#97D6C3"/>
<path d="M-9.24141 307.378C-7.67135 309.764 -5.43861 310.835 -4.0011 309.876C0.678481 306.736 12.4029 301.69 31.4577 311.783C31.6514 311.885 31.8451 311.987 32.049 312.099C52.0009 322.916 64.1535 340.992 69.139 349.729C70.7396 352.533 73.319 354.225 75.2357 353.715C77.6315 353.073 77.9782 349.311 75.9595 345.804C69.6895 334.946 55.2634 313.873 32.1917 301.618C31.9674 301.496 31.7329 301.374 31.5086 301.261C9.67061 289.935 -3.89915 295.746 -9.55746 299.61C-11.3008 300.803 -11.1581 304.452 -9.24141 307.368V307.378Z" fill="#F1F9F6"/>
<path d="M1.85804 328.33C3.4077 330.787 5.67102 332 7.17991 331.164C11.0948 329.013 19.5262 326.209 31.2201 332.479C31.3526 332.55 31.4954 332.632 31.6381 332.703C43.3115 339.136 51.3657 351.126 55.1787 357.824C56.7386 360.557 59.2262 362.198 61.0613 361.709C63.3858 361.087 63.7223 357.365 61.724 353.909C56.6366 345.08 46.207 329.879 31.1691 321.947C16.6716 314.342 6.51722 317.747 1.67452 320.53C-0.160606 321.591 -0.0790448 325.261 1.83764 328.289L1.85804 328.33Z" fill="#F1F9F6"/>
<path d="M49.7003 370.742H49.7207C52.0962 370.262 52.4734 366.541 50.5057 363.024C46.7437 356.315 40.0557 346.467 31.1043 341.451C22.8564 336.822 16.7903 338.27 13.2934 340.126C11.3053 341.186 11.4481 345.131 13.6094 348.292L13.6298 348.312C15.2203 350.637 17.402 351.748 18.8905 350.983C21.3068 349.74 25.5276 348.72 31.0533 351.881C36.8952 355.225 41.5034 362.167 44.093 366.816C45.5611 369.457 47.9263 371.088 49.7105 370.731L49.7003 370.742Z" fill="#F1F9F6"/>
<path d="M21.5353 366.552C21.5047 372.445 25.7459 379.785 31.0576 382.986C36.4304 386.228 40.8551 384.026 40.8959 378.021C40.9367 372.016 36.5528 364.574 31.1799 361.454C25.8581 358.365 21.5659 360.659 21.5353 366.552Z" fill="#F1F9F6"/>
<g style="mix-blend-mode:overlay">
<path d="M332.805 304.401C334.375 306.806 336.609 307.886 338.047 306.919C342.729 303.753 354.458 298.665 373.52 308.842C373.714 308.944 373.908 309.047 374.112 309.16C394.072 320.067 406.229 338.293 411.217 347.103C412.818 349.93 415.399 351.636 417.316 351.122C419.713 350.475 420.06 346.681 418.04 343.145C411.768 332.197 397.336 310.949 374.255 298.593C374.03 298.469 373.796 298.346 373.571 298.233C351.724 286.822 338.149 292.672 332.478 296.568C330.734 297.77 330.877 301.451 332.794 304.391L332.805 304.401Z" fill="#333333"/>
<path d="M343.894 325.526C345.444 328.003 347.708 329.226 349.218 328.383C353.134 326.214 361.569 323.387 373.268 329.709C373.4 329.781 373.543 329.864 373.686 329.936C385.364 336.422 393.422 348.511 397.236 355.265C398.797 358.02 401.285 359.675 403.121 359.181C405.447 358.554 405.783 354.802 403.784 351.317C398.695 342.415 388.261 327.088 373.217 319.09C358.713 311.422 348.555 314.855 343.71 317.662C341.874 318.731 341.956 322.431 343.873 325.484L343.894 325.526Z" fill="#333333"/>
<path d="M391.767 368.289H391.787C394.163 367.805 394.541 364.053 392.572 360.507C388.809 353.743 382.118 343.813 373.163 338.755C364.912 334.088 358.843 335.548 355.345 337.419C353.356 338.488 353.499 342.466 355.661 345.653L355.681 345.673C357.272 348.017 359.455 349.137 360.944 348.366C363.361 347.112 367.584 346.084 373.112 349.271C378.956 352.643 383.566 359.643 386.157 364.331C387.626 366.993 389.992 368.638 391.777 368.278L391.767 368.289Z" fill="#333333"/>
<path d="M363.602 364.074C363.571 370.006 367.814 377.417 373.128 380.645C378.503 383.914 382.929 381.694 382.97 375.639C383.011 369.584 378.625 362.08 373.25 358.934C367.926 355.82 363.632 358.132 363.602 364.074Z" fill="#333333"/>
</g>
<path d="M360.647 362.296L360.678 362.276C362.279 361.926 364.238 362.296 366.369 363.53C371.836 366.686 376.273 374.231 376.232 380.327C376.212 382.671 375.538 384.439 374.396 385.559L374.376 385.57C373.784 386.145 372.479 386.865 371.673 387.07L368.307 388.931L354.793 365.421L358.495 363.417C359.097 362.862 359.811 362.481 360.627 362.286L360.647 362.296Z" fill="#97D6C3"/>
<path d="M348.217 341.932C351.767 340.03 357.917 338.54 366.301 343.207C375.388 348.275 382.171 358.256 385.996 365.051C387.995 368.618 387.607 372.401 385.2 372.895L383.946 373.594L380.621 375.465L359.885 351.749C357.346 351.564 355.316 352.222 353.888 352.952C352.379 353.733 350.165 352.613 348.554 350.259L348.533 350.238C347.952 349.385 347.514 348.47 348.952 346.424L343.199 345.18L348.207 341.942L348.217 341.932Z" fill="#97D6C3"/>
<path d="M337.202 321.394C342.383 318.608 352.389 315.966 366.372 323.255C381.64 331.242 392.227 346.723 397.388 355.677C399.408 359.182 399.071 362.996 396.705 363.644C396.531 363.695 395.267 364.487 395.083 364.497L391.554 366.481L375.215 344.071L352.623 330.255C347.819 330.214 344.209 331.643 342.006 332.866C340.476 333.72 338.181 332.496 336.61 330.009L336.58 329.967C336.58 329.967 336.529 329.875 336.498 329.834L335.05 329.793L332.133 324.961L334.999 322.72L337.192 321.415L337.202 321.394Z" fill="#97D6C3"/>
<path d="M320.93 303.856L325.05 300.865C330.803 296.918 344.582 290.955 366.735 302.366C366.959 302.479 367.194 302.602 367.428 302.726C390.846 315.072 405.502 336.433 411.867 347.443C413.448 350.177 413.866 352.634 412.734 354.124L411.602 355.276L410.949 355.646C410.704 355.841 409.664 356.355 409.348 356.448L405.533 358.483L398.791 349.128L371.019 316.942L355.465 308.513C342.675 304.977 334.444 308.729 330.69 311.278C329.232 312.265 326.968 311.186 325.377 308.77C324.601 307.578 324.112 306.282 323.918 305.069L320.93 303.877V303.856Z" fill="#97D6C3"/>
<path d="M320.994 311.689C322.564 314.095 324.798 315.174 326.236 314.208C330.918 311.042 342.647 305.953 361.709 316.13C361.903 316.233 362.097 316.336 362.301 316.449C382.261 327.356 394.419 345.582 399.406 354.391C401.007 357.218 403.588 358.925 405.505 358.411C407.902 357.763 408.249 353.97 406.229 350.434C399.957 339.486 385.525 318.237 362.444 305.881C362.219 305.758 361.985 305.634 361.76 305.521C339.913 294.101 326.338 299.96 320.677 303.856C318.933 305.059 319.076 308.739 320.994 311.679V311.689Z" fill="#F1F9F6"/>
<path d="M332.093 332.814C333.643 335.291 335.908 336.514 337.417 335.671C341.334 333.502 349.768 330.675 361.467 336.998C361.6 337.069 361.742 337.152 361.885 337.224C373.563 343.71 381.621 355.799 385.435 362.553C386.996 365.308 389.485 366.963 391.32 366.47C393.646 365.843 393.983 362.09 391.983 358.606C386.894 349.703 376.46 334.376 361.416 326.379C346.913 318.71 336.754 322.143 331.909 324.95C330.074 326.019 330.155 329.719 332.073 332.773L332.093 332.814Z" fill="#F1F9F6"/>
<path d="M379.958 375.578H379.978C382.355 375.095 382.732 371.342 380.764 367.796C377 361.032 370.309 351.102 361.354 346.044C353.103 341.377 347.035 342.837 343.536 344.708C341.547 345.777 341.69 349.755 343.852 352.942L343.873 352.962C345.464 355.306 347.646 356.426 349.136 355.656C351.553 354.401 355.775 353.373 361.303 356.56C367.148 359.932 371.758 366.932 374.348 371.62C375.817 374.282 378.183 375.927 379.968 375.567L379.958 375.578Z" fill="#F1F9F6"/>
<path d="M351.789 371.353C351.759 377.295 356.002 384.697 361.315 387.924C366.69 391.193 371.117 388.973 371.158 382.918C371.199 376.863 366.813 369.359 361.438 366.214C356.114 363.099 351.82 365.412 351.789 371.353Z" fill="#F1F9F6"/>
</svg>
