<svg width="442" height="448" viewBox="0 0 442 448" fill="none" xmlns="http://www.w3.org/2000/svg">
<g clip-path="url(#clip0_1447_56043)">
<path d="M-65.6326 495.898L537.717 139.663H739.588L1018.29 304.403C1024.89 308.405 1022.21 318.729 1014.59 318.729L839.907 319.149L268.486 656.425C244.591 670.539 214.928 670.539 191.033 656.425L-65.6326 504.745C-68.9284 502.851 -68.9284 498.004 -65.6326 495.898Z" fill="#333333"/>
<path d="M-106.421 421.108L572.322 20.4229H773.987L1077.21 199.488L874.511 199.909L196.593 600.174L-106.421 421.108Z" fill="#D05F0D"/>
<path d="M-106.421 400.675L572.322 -0.00976562H773.987L1077.21 179.056L874.511 179.477L196.593 579.74L-106.421 400.675Z" fill="#F8F0E5"/>
<path d="M503.109 80.4668L738.97 218.874L197.005 539.928L-38.8555 400.678L503.109 80.4668Z" fill="#ECBF9E"/>
<path d="M-104.155 191.892L273.221 414.776C277.96 417.515 283.726 417.515 288.259 414.776L524.944 275.106C527.827 273.42 527.827 268.996 524.944 267.311L147.567 44.4271C142.829 41.6884 137.061 41.6884 132.529 44.4271L-104.155 184.309C-107.245 185.994 -107.245 190.206 -104.155 191.892Z" fill="#D05F0D"/>
<path d="M-104.155 174.836L273.221 397.719C277.96 400.459 283.726 400.459 288.259 397.719L524.944 258.048C527.827 256.364 527.827 251.939 524.944 250.254L147.567 27.3705C142.829 24.6317 137.061 24.6317 132.529 27.3705L-104.155 167.041C-107.245 168.727 -107.245 173.15 -104.155 174.836Z" fill="#F8F0E5"/>
<path d="M-39.4731 128.913L352.528 359.802L316.48 381.289L-75.7275 150.19L-39.4731 128.913Z" fill="#333333"/>
<path d="M17.3828 397.943L91.7458 353.915L275.284 461.986L201.54 506.436L17.3828 397.943Z" fill="#333333"/>
<path d="M360.564 547.715L360.359 553.825L665.432 373.707V367.598L360.564 547.715Z" fill="white"/>
<path d="M94.3618 105.498L30.7695 139.918L94.3618 174.338L157.658 139.918L94.3618 105.498Z" fill="#ECBF9E"/>
<path d="M157.657 139.918V150.701L94.3613 185.121V174.338L157.657 139.918Z" fill="#333333"/>
<path d="M30.7695 139.918V150.701L94.3618 185.121V174.338L30.7695 139.918Z" fill="#333333"/>
<path d="M54.5456 142.065C54.5456 142.065 54.33 141.888 54.1413 141.711C53.8717 141.433 53.7638 141.156 53.8447 140.878C53.9256 140.6 54.1952 140.348 54.6265 140.095C55.1117 139.843 55.5969 139.691 56.163 139.666C56.6752 139.64 57.2144 139.666 57.7535 139.843C57.9692 139.918 58.1579 139.969 58.3196 140.07V140.171L54.7882 142.09H54.5726M63.172 139.388C62.6058 139.11 62.0397 138.858 61.5276 138.63C59.8562 137.974 58.2118 137.646 56.5944 137.646C55.0039 137.646 53.5212 137.999 52.1464 138.731C51.0142 139.363 50.3403 140.07 50.1246 140.853C49.909 141.661 50.1785 142.393 50.9333 143.1C51.3377 143.479 51.9308 143.883 52.7395 144.338C53.4134 144.716 54.1682 145.019 54.923 145.247C56.3518 145.701 57.8344 145.878 59.2901 145.777C60.7997 145.676 62.1745 145.272 63.4415 144.59C64.2772 144.136 64.8703 143.63 65.2746 143.05C65.652 142.494 65.7868 141.913 65.679 141.383L65.5172 141.206L65.1398 141.13H62.8215L62.498 141.231L62.3632 141.459C62.4711 142.04 62.0937 142.595 61.231 143.125C60.638 143.454 60.0449 143.656 59.3979 143.757C58.751 143.858 58.1579 143.832 57.5918 143.681C57.4031 143.63 57.1335 143.529 56.81 143.403V143.277L63.145 139.817C63.3876 139.691 63.3876 139.565 63.145 139.438" fill="#333333"/>
<path d="M76.49 132.899C75.6273 132.419 74.6838 132.166 73.6594 132.091C72.6351 132.04 71.7185 132.091 70.8828 132.242C70.0472 132.419 68.9689 132.646 67.648 132.975C66.4618 133.278 65.5722 133.505 64.9253 133.631C64.3322 133.757 63.7931 133.808 63.3348 133.783C62.9035 133.783 62.4991 133.682 62.1487 133.48C61.6634 133.227 61.4747 132.899 61.5556 132.571C61.6365 132.217 62.0139 131.863 62.6609 131.51C63.4965 131.055 64.3592 130.828 65.2218 130.778C66.1114 130.752 66.8392 130.879 67.4323 131.207L67.648 131.308C67.7828 131.384 67.9715 131.358 68.2141 131.232L70.3976 130.045C70.6402 129.919 70.6402 129.793 70.3976 129.666L70.1819 129.565C69.2924 129.086 68.268 128.783 67.1358 128.682C66.0036 128.581 64.8444 128.631 63.6313 128.884C62.4452 129.136 61.313 129.54 60.2617 130.121C59.2642 130.651 58.5634 131.232 58.132 131.813C57.7007 132.419 57.5929 133 57.7816 133.555C57.9703 134.111 58.4825 134.641 59.3182 135.096C60.1538 135.55 61.0973 135.803 62.1217 135.879C63.1461 135.954 64.1435 135.904 65.114 135.727C66.0844 135.55 67.1897 135.298 68.4567 134.97C69.5889 134.692 70.4246 134.49 70.9637 134.389C71.5298 134.288 72.015 134.237 72.4733 134.237C72.9316 134.237 73.309 134.338 73.6594 134.515C74.1177 134.768 74.3334 135.071 74.2795 135.424C74.2525 135.778 73.8481 136.156 73.1203 136.561C72.3116 137.015 71.4489 137.268 70.5593 137.343C69.6698 137.419 68.9419 137.293 68.4028 136.99L68.1062 136.838C67.9175 136.737 67.7288 136.763 67.4862 136.889L65.3027 138.076C65.087 138.202 65.087 138.328 65.3027 138.454L65.6531 138.657C66.5158 139.136 67.5132 139.414 68.6184 139.54C69.6967 139.641 70.8289 139.591 72.015 139.338C73.2012 139.086 74.3334 138.682 75.4117 138.101C76.49 137.52 77.2448 136.914 77.703 136.308C78.1613 135.677 78.2691 135.071 78.0804 134.49C77.8917 133.909 77.3526 133.379 76.5169 132.924" fill="#333333"/>
<path d="M85.5702 131.989L75.5691 126.585C75.3265 126.459 75.0839 126.459 74.8682 126.585L72.6577 127.797C72.4151 127.924 72.4151 128.05 72.6577 128.176L82.6588 133.58C82.8745 133.706 83.1171 133.706 83.3597 133.58L85.5702 132.368C85.8128 132.242 85.8128 132.116 85.5702 131.989ZM72.7386 124.716C72.1994 124.439 71.6333 124.287 70.9863 124.287C70.3394 124.287 69.7463 124.439 69.2072 124.742C68.695 125.019 68.3984 125.348 68.3984 125.701C68.3984 126.055 68.6411 126.383 69.1802 126.661C69.6924 126.939 70.2854 127.09 70.9324 127.065C71.5794 127.065 72.1994 126.913 72.7116 126.636C73.2507 126.358 73.5203 126.03 73.5203 125.676C73.5203 125.322 73.2777 125.019 72.7386 124.716Z" fill="#333333"/>
<path d="M103.525 122.217L96.7321 118.53C95.546 117.898 94.3329 117.57 93.0659 117.545C91.7989 117.545 90.6397 117.797 89.5614 118.404C88.9145 118.757 88.4832 119.136 88.2405 119.565C88.0249 119.994 88.0249 120.449 88.2405 120.904V121.005H88.0788C87.2701 120.853 86.4614 120.853 85.6526 120.979C84.8709 121.106 84.1161 121.358 83.4421 121.737C82.256 122.368 81.7977 123.075 82.0673 123.808V123.883L81.8786 123.858L81.2047 123.505C80.9621 123.378 80.7195 123.378 80.5038 123.505L78.2933 124.717C78.0507 124.843 78.0507 124.969 78.2933 125.096L88.2945 130.5C88.5101 130.626 88.7527 130.626 88.9953 130.5L91.2058 129.288C91.4485 129.161 91.4485 129.035 91.2058 128.909L84.7091 125.399C84.2778 125.121 84.0891 124.818 84.1161 124.515C84.143 124.212 84.3856 123.934 84.817 123.707C85.3022 123.454 85.8683 123.328 86.4883 123.353C87.1353 123.353 87.7284 123.53 88.2945 123.833L94.4407 127.166C94.6564 127.293 94.899 127.293 95.1416 127.166L97.3251 125.979C97.5678 125.853 97.5678 125.727 97.3251 125.601L91.1519 122.267C90.6128 121.964 90.3163 121.661 90.2623 121.308C90.2623 120.954 90.451 120.651 90.9363 120.399C91.4215 120.146 91.9876 120.02 92.6076 120.045C93.2276 120.07 93.8207 120.222 94.4138 120.55L100.56 123.883C100.776 124.01 101.018 124.01 101.261 123.883L103.471 122.671C103.714 122.545 103.714 122.419 103.471 122.292" fill="#333333"/>
<path d="M76.304 139.919L75.7109 139.616H75.4952L72.2334 141.384V141.51L72.8265 141.813H73.0421L74.1474 141.207H74.2282L77.9214 143.202H78.1371L78.8649 142.823L78.8379 142.697L75.1717 140.702V140.677L76.304 140.046V139.919Z" fill="#333333"/>
<path d="M79.1284 140.375L79.0206 140.274C79.0206 140.274 78.8858 140.097 78.9127 140.021C78.9397 139.92 79.0206 139.844 79.1554 139.768C79.2901 139.693 79.4788 139.642 79.6406 139.642C79.8023 139.642 79.991 139.642 80.1528 139.693L80.3415 139.768L79.2362 140.4H79.1554M81.905 139.541C81.7163 139.44 81.5546 139.364 81.3659 139.289C80.8267 139.087 80.3145 138.96 79.8023 138.986C79.2901 138.986 78.8319 139.087 78.3736 139.339C78.0232 139.541 77.8075 139.768 77.7266 140.021C77.6457 140.274 77.7266 140.501 77.9692 140.728C78.104 140.854 78.2927 140.981 78.5623 141.132C78.778 141.233 78.9936 141.359 79.2632 141.435C79.7215 141.587 80.1797 141.637 80.665 141.612C81.1232 141.561 81.5815 141.46 81.9859 141.233C82.2554 141.082 82.4441 140.93 82.5789 140.753C82.7137 140.577 82.7407 140.4 82.7137 140.223L82.6598 140.173H82.552H81.8241H81.7163L81.6893 140.274C81.7163 140.45 81.6085 140.627 81.3389 140.804C81.1502 140.905 80.9615 140.955 80.7728 141.006C80.5571 141.031 80.3684 141.006 80.1797 140.981L79.9371 140.88V140.829L81.9589 139.743V139.617" fill="#333333"/>
<path d="M84.7935 137.091L84.5509 136.99C84.1735 136.889 83.7961 136.863 83.3379 136.914C82.9065 136.964 82.5022 137.091 82.1517 137.267C81.8013 137.469 81.5587 137.672 81.4778 137.899C81.3969 138.126 81.4508 138.353 81.6395 138.581C81.7743 138.732 81.99 138.909 82.2865 139.06C82.5831 139.212 82.8796 139.338 83.2031 139.414C83.6074 139.515 84.0387 139.565 84.4701 139.515C84.9014 139.464 85.144 139.439 85.144 139.439C85.144 139.439 85.3057 139.338 85.6562 139.161C86.0066 138.985 86.2223 138.757 86.3301 138.53C86.4379 138.303 86.3571 138.076 86.1684 137.874L86.0605 137.773H85.9527H85.8449L85.0362 138.101L84.9823 138.151V138.202L85.0092 138.227C85.0901 138.303 85.117 138.404 85.0901 138.505C85.0901 138.606 84.9822 138.682 84.8475 138.757C84.7127 138.833 84.5509 138.884 84.3892 138.884C84.2005 138.884 84.0387 138.884 83.877 138.833C83.6883 138.783 83.4996 138.707 83.257 138.581C83.0144 138.454 82.8796 138.353 82.7717 138.252C82.6909 138.151 82.6639 138.076 82.6909 137.975C82.7178 137.874 82.7987 137.798 82.9335 137.722C83.0683 137.646 83.23 137.596 83.4187 137.571C83.6074 137.571 83.7692 137.571 83.904 137.596L84.0118 137.646H84.1735V137.621L84.7666 137.192V137.091" fill="#333333"/>
<path d="M90.5873 136.308L88.4576 135.147C88.0802 134.945 87.6759 134.844 87.2446 134.844C86.8133 134.844 86.4359 134.945 86.0854 135.147C85.735 135.324 85.6002 135.551 85.6541 135.778H85.6002L84.1714 135.021H83.9558L83.2549 135.399V135.526L87.6759 137.925H87.9185L88.6194 137.546V137.42L86.6515 136.359C86.4628 136.258 86.3819 136.157 86.3819 136.031C86.3819 135.93 86.4358 135.803 86.5976 135.728C86.7593 135.652 86.948 135.601 87.1637 135.601C87.3794 135.601 87.568 135.652 87.7298 135.753L89.6707 136.813H89.8864L90.5873 136.435V136.308Z" fill="#333333"/>
<path d="M94.3355 134.262L92.2059 133.1C91.8285 132.898 91.4241 132.797 90.9928 132.797C90.5615 132.797 90.1841 132.898 89.8336 133.075C89.4832 133.251 89.3484 133.479 89.4023 133.706H89.3484L89.1597 133.605H88.944L88.2432 133.984V134.11L91.4241 135.827H91.6667L92.3676 135.448V135.322L90.3997 134.262C90.211 134.161 90.1302 134.06 90.1302 133.933C90.1302 133.832 90.1841 133.706 90.3458 133.63C90.5076 133.554 90.6963 133.504 90.9119 133.504C91.1276 133.504 91.3163 133.554 91.478 133.655L93.419 134.716H93.6346L94.3355 134.337V134.211" fill="#333333"/>
<path d="M94.365 132.52C94.1763 132.419 94.0415 132.318 93.9337 132.217C93.8259 132.116 93.772 132.015 93.7989 131.914C93.7989 131.813 93.8798 131.737 94.0415 131.636C94.1763 131.561 94.365 131.51 94.5537 131.51C94.7424 131.51 94.9311 131.51 95.1198 131.586C95.2816 131.636 95.4703 131.712 95.659 131.813C95.8477 131.914 95.9825 131.99 96.0633 132.091C96.1712 132.192 96.2251 132.318 96.2251 132.419C96.2251 132.52 96.1442 132.596 95.9825 132.697C95.8207 132.798 95.659 132.823 95.4703 132.823C95.2816 132.823 95.0929 132.823 94.8772 132.747C94.7155 132.697 94.5268 132.621 94.365 132.52ZM96.5755 131.308C96.3059 131.157 96.0633 131.056 95.7938 130.98C95.3894 130.854 94.9311 130.828 94.4998 130.854C94.0415 130.879 93.6372 131.005 93.2867 131.207C92.9093 131.409 92.6937 131.636 92.6128 131.864C92.5319 132.116 92.6128 132.343 92.8285 132.571C92.9632 132.722 93.1519 132.849 93.4485 133C93.6911 133.126 93.9337 133.227 94.2033 133.328C94.6346 133.455 95.0659 133.505 95.5511 133.455C96.0094 133.429 96.4138 133.303 96.7912 133.101C97.1686 132.899 97.3842 132.672 97.4382 132.419C97.519 132.167 97.4381 131.914 97.1686 131.687C97.0068 131.535 96.8181 131.384 96.5755 131.283" fill="#333333"/>
<path d="M99.862 131.257L95.441 128.858H95.2253L94.5244 129.237V129.363L98.9454 131.762H99.1611L99.862 131.384V131.257Z" fill="#333333"/>
<path d="M99.9398 129.49C99.7511 129.389 99.6163 129.288 99.5085 129.187C99.4007 129.086 99.3468 128.985 99.3737 128.884C99.3737 128.783 99.4546 128.707 99.6163 128.606C99.7511 128.53 99.9398 128.48 100.129 128.48C100.317 128.48 100.506 128.48 100.695 128.556C100.856 128.606 101.045 128.682 101.234 128.783C101.422 128.884 101.557 128.96 101.638 129.061C101.746 129.162 101.8 129.288 101.8 129.389C101.8 129.49 101.719 129.566 101.557 129.667C101.422 129.742 101.261 129.793 101.045 129.793C100.856 129.793 100.668 129.793 100.452 129.717C100.29 129.667 100.102 129.591 99.9398 129.49ZM102.15 128.278C101.881 128.126 101.638 128.025 101.342 127.95C100.937 127.823 100.479 127.798 100.048 127.823C99.5894 127.849 99.185 127.975 98.8346 128.177C98.4572 128.379 98.2415 128.606 98.1606 128.833C98.0798 129.086 98.1606 129.313 98.3763 129.54C98.5111 129.692 98.6998 129.818 98.9963 129.97C99.2389 130.096 99.4816 130.197 99.7511 130.298C100.182 130.424 100.614 130.475 101.099 130.424C101.557 130.399 101.962 130.273 102.339 130.071C102.716 129.869 102.932 129.641 102.986 129.389C103.067 129.136 102.986 128.884 102.716 128.657C102.555 128.505 102.366 128.354 102.123 128.253" fill="#333333"/>
<path d="M103.715 127.394C103.499 127.268 103.337 127.167 103.257 127.066C103.176 126.965 103.149 126.889 103.176 126.788C103.176 126.712 103.257 126.611 103.391 126.536C103.526 126.46 103.688 126.435 103.85 126.409C104.038 126.409 104.173 126.409 104.335 126.46L104.604 126.561C104.604 126.561 104.793 126.662 104.928 126.738C105.144 126.864 105.332 126.965 105.413 127.066C105.494 127.142 105.521 127.243 105.521 127.319C105.494 127.42 105.413 127.495 105.278 127.571C105.144 127.647 104.982 127.672 104.82 127.697C104.631 127.697 104.497 127.697 104.335 127.647C104.173 127.622 103.957 127.546 103.715 127.394ZM107.3 126.99L104.308 125.374H104.092L103.391 125.753V125.879L103.499 125.955L103.472 125.98C103.095 125.98 102.717 126.056 102.394 126.233C102.097 126.384 101.936 126.561 101.855 126.788C101.801 126.99 101.855 127.192 102.043 127.394C102.178 127.546 102.421 127.723 102.771 127.899C103.095 128.076 103.391 128.202 103.661 128.278C104.065 128.379 104.443 128.43 104.847 128.354C105.224 128.303 105.548 128.202 105.844 128.051C106.168 127.874 106.33 127.697 106.33 127.521H106.357C106.626 127.672 106.761 127.824 106.734 127.975C106.734 128.127 106.545 128.278 106.276 128.43C106.168 128.48 106.006 128.556 105.844 128.632L105.764 128.682L105.818 128.758L106.411 129.111H106.626C106.815 129.036 107.004 128.96 107.138 128.859C107.651 128.581 107.947 128.278 108.028 127.975C108.109 127.647 107.866 127.344 107.273 127.041" fill="#333333"/>
<path d="M107.97 123.403L107.863 123.353H107.755L107 123.782V123.908L108.429 125.247L108.375 125.272L105.841 124.489H105.625L104.87 124.918L104.816 124.969V125.019H104.897L109.21 126.206H109.264C109.426 126.383 109.48 126.509 109.426 126.61C109.372 126.711 109.21 126.837 108.941 126.989H108.914L108.995 127.09L109.534 127.393H109.696H109.75C110.127 127.191 110.37 127.014 110.504 126.863C110.639 126.711 110.693 126.56 110.639 126.408C110.585 126.257 110.477 126.08 110.262 125.827L107.997 123.378" fill="#333333"/>
<path d="M94.3628 173.655L31.3905 139.589L30.7705 139.917L94.3628 174.337L157.658 139.917L157.038 139.589L94.3628 173.655Z" fill="url(#paint0_linear_1447_56043)"/>
</g>
<defs>
<linearGradient id="paint0_linear_1447_56043" x1="99.5116" y1="186.029" x2="95.6502" y2="147.768" gradientUnits="userSpaceOnUse">
<stop stop-color="#7CFFFF"/>
<stop offset="0.16" stop-color="#6EF7FF"/>
<stop offset="0.46" stop-color="#4CE2FF"/>
<stop offset="0.86" stop-color="#14C2FF"/>
<stop offset="1" stop-color="#00B6FF"/>
</linearGradient>
<clipPath id="clip0_1447_56043">
<rect width="482" height="448" fill="white" transform="translate(-20 -0.00976562)"/>
</clipPath>
</defs>
</svg>
