<svg width="441" height="448" viewBox="0 0 441 448" fill="none" xmlns="http://www.w3.org/2000/svg">
<g clip-path="url(#clip0_1447_56080)">
<mask id="mask0_1447_56080" style="mask-type:luminance" maskUnits="userSpaceOnUse" x="-169" y="-1" width="779" height="645">
<path d="M609.781 -0.00976562H-168.453V643.272H609.781V-0.00976562Z" fill="white"/>
</mask>
<g mask="url(#mask0_1447_56080)">
<path d="M-133.369 251.466H-116.252C-113.4 249.18 -110.547 247.179 -107.124 245.179C-72.0347 224.888 -14.4088 224.888 20.9655 245.465C24.3887 247.465 27.2416 249.465 29.809 251.466H47.4961V285.187H47.2109C46.3551 297.761 37.5115 310.049 21.2507 319.48C-13.8383 339.771 -71.4642 339.771 -106.838 319.194C-123.099 309.763 -131.943 297.475 -133.084 285.187H-133.369V251.466Z" fill="#333333"/>
<path d="M47.7955 252.59C47.9639 223.706 7.61246 200.056 -42.332 199.764C-92.2767 199.47 -132.901 222.648 -133.07 251.531C-133.238 280.413 -92.887 304.064 -42.9423 304.358C7.00221 304.65 47.6268 281.472 47.7955 252.59Z" fill="#F8F0E5"/>
<path d="M30.9648 252.498C31.102 228.98 -1.73927 209.725 -42.3881 209.487C-83.0371 209.249 -116.101 228.119 -116.238 251.636C-116.375 275.152 -83.5339 294.41 -42.885 294.648C-2.23615 294.886 30.8275 276.014 30.9648 252.498Z" fill="#88C8B0"/>
<path d="M-133.372 214.028H-116.256C-113.403 211.742 -110.55 209.742 -107.127 207.741C-72.0376 187.452 -14.4118 187.452 20.9624 208.027C24.3858 210.027 27.2385 212.028 29.806 214.028H47.4932V247.749H47.2079C46.352 260.325 37.5084 272.613 21.2478 282.044C-13.8413 302.333 -71.4671 302.333 -106.841 281.756C-123.102 272.327 -131.946 260.037 -133.087 247.749H-133.372V214.028Z" fill="#333333"/>
<path d="M47.6509 215.292C47.8194 186.41 7.46793 162.758 -42.4767 162.466C-92.4212 162.173 -133.046 185.351 -133.214 214.233C-133.383 243.115 -93.0315 266.767 -43.0868 267.06C6.85768 267.352 47.4823 244.175 47.6509 215.292Z" fill="#F8F0E5"/>
<path d="M30.8202 215.199C30.9575 191.683 -1.88381 172.426 -42.5327 172.188C-83.1816 171.95 -116.245 190.822 -116.382 214.338C-116.52 237.855 -83.6785 257.111 -43.0295 257.349C-2.38068 257.587 30.683 238.717 30.8202 215.199Z" fill="#88C8B0"/>
<path d="M-133.369 176.877H-116.252C-113.4 174.591 -110.547 172.59 -107.124 170.59C-72.0347 150.3 -14.4088 150.3 20.9655 170.876C24.3887 172.876 27.2416 174.876 29.809 176.877H47.4961V210.598H47.2109C46.3551 223.173 37.5115 235.461 21.2507 244.892C-13.8383 265.182 -71.4642 265.182 -106.838 244.607C-123.099 235.176 -131.943 222.888 -133.084 210.598H-133.369V176.877Z" fill="#333333"/>
<path d="M47.7955 178C47.9639 149.118 7.61244 125.467 -42.3322 125.175C-92.2767 124.882 -132.901 148.059 -133.07 176.942C-133.238 205.826 -92.887 229.476 -42.9423 229.768C7.0022 230.06 47.6268 206.884 47.7955 178Z" fill="#F8F0E5"/>
<path d="M30.9648 177.91C31.102 154.393 -1.7393 135.136 -42.3881 134.898C-83.0371 134.66 -116.101 153.531 -116.238 177.047C-116.375 200.564 -83.5339 219.82 -42.885 220.06C-2.23616 220.298 30.8275 201.426 30.9648 177.91Z" fill="#D05F0D"/>
<path d="M-168.457 191.172H-151.341C-148.488 188.886 -145.635 186.885 -142.212 184.885C-107.123 164.595 -49.4969 164.595 -14.1225 185.17C-10.6992 187.171 -7.84645 189.171 -5.27896 191.172H12.4082V224.893H12.1229C11.2671 237.468 2.42349 249.756 -13.8373 259.187C-48.9262 279.477 -106.552 279.477 -141.926 258.902C-158.187 249.471 -167.031 237.183 -168.172 224.893H-168.457V191.172Z" fill="#333333"/>
<path d="M12.4088 192.599C12.5772 163.717 -27.7742 140.066 -77.7189 139.773C-127.663 139.481 -168.288 162.658 -168.457 191.541C-168.625 220.423 -128.274 244.075 -78.329 244.367C-28.3845 244.659 12.2401 221.483 12.4088 192.599Z" fill="#F8F0E5"/>
<path d="M281.705 421.219C281.705 428.364 277.14 435.222 268.011 440.652C249.754 451.225 219.8 451.225 201.257 440.652C192.128 435.222 187.279 428.364 187.279 421.219C187.279 448.653 209.815 504.952 209.815 504.952C211.242 508.667 214.666 512.095 219.514 514.954C233.778 523.241 256.886 523.241 270.865 514.954C277.997 510.953 281.42 505.523 281.42 500.093L281.705 421.219Z" fill="#003D22"/>
<path d="M187.561 421.219C187.561 434.936 193.267 455.798 198.972 473.231C204.677 490.662 210.384 504.667 210.384 504.667C211.809 508.38 215.233 511.81 220.083 514.669C220.654 514.954 221.51 515.525 222.08 515.811C236.344 522.956 258.025 522.67 271.432 514.669C278.564 510.668 281.987 505.238 281.987 499.807V421.219C281.987 428.078 277.423 435.222 268.294 440.366C250.037 450.939 220.083 450.939 201.54 440.366C192.125 435.222 187.561 428.364 187.561 421.219Z" fill="#333333"/>
<path d="M267.727 402.072C249.184 391.497 219.514 391.497 200.972 402.072C191.844 407.5 187.279 414.36 187.279 421.505C187.279 428.363 191.844 435.508 201.257 440.936C219.8 451.511 249.47 451.511 268.011 440.936C277.14 435.508 281.705 428.648 281.705 421.505C281.705 414.36 277.14 407.215 267.727 402.072Z" fill="#003D22"/>
<path d="M180.431 362.641C180.431 369.784 175.867 376.643 166.738 382.072C148.48 392.647 118.526 392.647 99.9833 382.072C90.8546 376.643 86.0049 369.784 86.0049 362.641C86.0049 390.075 108.542 446.372 108.542 446.372C109.968 450.088 113.391 453.517 118.241 456.374C132.505 464.662 155.612 464.662 169.592 456.374C176.723 452.374 180.145 446.943 180.145 441.515L180.431 362.641Z" fill="#333333"/>
<path d="M166.452 343.206C147.91 332.633 118.241 332.633 99.6982 343.206C90.5693 348.636 86.0049 355.494 86.0049 362.639C86.0049 369.497 90.5693 376.642 99.9833 382.072C118.526 392.645 148.195 392.645 166.738 382.072C175.867 376.642 180.431 369.783 180.431 362.639C180.431 355.78 175.581 348.636 166.452 343.206Z" fill="#003D22"/>
<path d="M461.719 317.202C461.719 324.347 457.155 331.205 448.026 336.635C429.768 347.208 399.813 347.208 381.271 336.635C372.142 331.205 367.292 324.347 367.292 317.202C367.292 344.637 389.83 400.934 389.83 400.934C391.255 404.649 394.678 408.079 399.529 410.936C413.792 419.225 436.9 419.225 450.877 410.936C458.009 406.935 461.433 401.507 461.433 396.076L461.719 317.202Z" fill="#003D22"/>
<path d="M367.574 317.202C367.574 330.919 373.279 351.78 378.984 369.213C384.691 386.645 390.396 400.648 390.396 400.648C391.823 404.364 395.247 407.793 400.095 410.65C400.666 410.936 401.522 411.509 402.092 411.794C416.356 418.938 438.037 418.652 451.446 410.65C458.577 406.65 462.001 401.219 462.001 395.791V317.202C462.001 324.06 457.437 331.205 448.308 336.35C430.049 346.923 400.095 346.923 381.553 336.35C372.139 331.205 367.574 324.06 367.574 317.202Z" fill="#333333"/>
<path d="M448.019 297.766C429.476 287.193 399.808 287.193 381.264 297.766C372.136 303.196 367.571 310.055 367.571 317.199C367.571 324.058 372.136 331.202 381.55 336.632C400.092 347.205 429.762 347.205 448.305 336.632C457.434 331.202 461.998 324.344 461.998 317.199C461.712 310.055 457.148 303.196 448.019 297.766Z" fill="#003D22"/>
<path d="M360.443 258.327C360.443 265.471 355.878 272.33 346.748 277.76C328.49 288.333 298.537 288.333 279.993 277.76C270.864 272.33 266.016 265.471 266.016 258.327C266.016 285.762 288.552 342.059 288.552 342.059C289.978 345.774 293.402 349.204 298.252 352.061C312.516 360.348 335.622 360.348 349.601 352.061C356.733 348.06 360.157 342.63 360.157 337.201L360.443 258.327Z" fill="white" stroke="black" stroke-width="0.635789" stroke-miterlimit="10" stroke-linecap="round" stroke-linejoin="round"/>
<path d="M346.463 239.18C327.92 228.605 298.252 228.605 279.709 239.18C270.58 244.609 266.016 251.468 266.016 258.613C266.016 265.471 270.58 272.616 279.993 278.045C298.537 288.619 328.206 288.619 346.748 278.045C355.878 272.616 360.443 265.757 360.443 258.613C360.443 251.468 355.878 244.323 346.463 239.18Z" fill="#003D22"/>
<path d="M435.187 353.491C466.851 335.202 492.812 288.907 493.667 236.038C495.664 107.439 365.579 7.70311 248.045 77.1467C191.845 110.297 161.891 127.729 132.508 144.59C101.698 162.308 74.0263 180.312 57.195 207.174C45.2134 226.607 39.5078 250.898 39.5078 280.333C39.5078 384.641 118.529 488.093 239.201 457.8C254.035 454.085 270.581 448.656 286.272 439.511C341.616 407.504 406.374 370.353 435.187 353.491Z" fill="#CBEBE1"/>
<path d="M157.897 333.776C164.041 333.776 169.023 323.669 169.023 311.201C169.023 298.732 164.041 288.625 157.897 288.625C151.753 288.625 146.771 298.732 146.771 311.201C146.771 323.669 151.753 333.776 157.897 333.776Z" fill="#97D6C3"/>
<path d="M80.2996 288.908C86.4442 288.908 91.4254 278.801 91.4254 266.332C91.4254 253.864 86.4442 243.755 80.2996 243.755C74.155 243.755 69.1738 253.864 69.1738 266.332C69.1738 278.801 74.155 288.908 80.2996 288.908Z" fill="#97D6C3"/>
<path d="M72.8818 136.299C73.1672 136.585 73.4525 136.585 73.7377 136.871C74.023 137.157 74.5935 137.443 74.8788 137.728C75.1642 138.014 75.7347 138.3 76.0198 138.586C76.3052 138.871 76.5905 139.157 76.8757 139.157C77.4464 139.443 77.7315 140.015 78.3022 140.3C78.5874 140.586 78.8727 140.872 79.1579 141.158C79.7286 141.443 80.2991 142.015 80.8696 142.587C81.1549 142.872 81.4402 143.158 82.0107 143.444C82.5812 144.015 83.1518 144.301 83.7224 144.873C84.2929 145.444 85.1488 146.016 85.7193 146.587C86.5751 147.159 87.1456 148.016 88.0015 148.874L88.2868 149.159C89.1426 150.017 89.7132 150.588 90.569 151.446C90.8543 151.731 90.8543 151.731 91.1395 152.017C91.9953 152.875 92.8512 153.732 93.4218 154.589L93.707 154.875C94.5629 155.732 95.1334 156.59 95.9892 157.447L96.2745 157.733C97.1304 158.59 97.9862 159.733 98.8421 160.59C99.1272 160.876 99.1272 161.162 99.4126 161.162C100.268 162.305 101.124 163.162 101.98 164.306C102.836 165.448 103.692 166.307 104.548 167.449C104.833 167.734 105.118 168.307 105.403 168.593C105.974 169.449 106.83 170.307 107.4 171.164C107.686 171.45 107.971 172.021 108.256 172.308C109.112 173.45 110.253 174.879 111.109 176.309L131.649 164.306C130.793 163.162 129.937 162.019 129.081 160.876C129.081 160.59 128.796 160.59 128.796 160.305C128.511 160.019 128.226 159.447 127.94 159.162C127.37 158.304 126.514 157.447 125.943 156.59C125.658 156.304 125.373 155.732 125.087 155.446C124.802 155.161 124.802 154.875 124.517 154.589C123.946 153.732 123.09 152.875 122.52 152.017C121.949 151.16 121.094 150.303 120.523 149.731C120.238 149.445 119.952 149.159 119.952 148.874C119.667 148.588 119.667 148.302 119.382 148.302C118.526 147.445 117.956 146.587 117.1 145.73C117.1 145.73 117.1 145.444 116.814 145.444L116.529 145.159C115.673 144.301 114.818 143.444 114.247 142.587L113.962 142.301C113.962 142.301 113.962 142.301 113.962 142.015C113.106 141.158 112.535 140.3 111.68 139.729C111.394 139.443 111.394 139.443 111.109 139.157C110.824 138.871 110.824 138.871 110.538 138.586C109.968 138.014 109.397 137.443 108.827 136.871L108.541 136.585C108.256 136.299 107.971 136.014 107.686 135.728C107.115 135.156 106.83 134.871 106.259 134.585C105.689 134.013 105.118 133.727 104.833 133.156C104.548 133.156 104.548 132.87 104.262 132.87C103.692 132.299 103.121 132.013 102.551 131.441C102.265 131.156 101.98 131.156 101.98 130.87L101.695 130.584C101.124 130.012 100.554 129.727 99.9831 129.155C99.6979 128.869 99.4126 128.869 99.1272 128.584C99.1272 128.584 99.1272 128.584 98.8421 128.584C98.2714 128.298 97.9862 127.726 97.4156 127.44C97.1304 127.155 96.845 127.155 96.5599 126.869C96.2745 126.583 95.704 126.297 95.4187 126.012C95.1334 125.726 94.8482 125.44 94.5629 125.44C94.2775 125.154 93.9924 125.154 93.707 124.868C93.4218 124.583 92.8512 124.297 92.566 124.011C92.566 124.011 92.566 124.011 92.2807 124.011C91.9953 123.725 91.7102 123.725 91.4248 123.44C91.1395 123.154 90.8543 123.154 90.569 122.868C90.2838 122.868 90.2836 122.582 89.9985 122.582C89.428 122.296 89.1426 122.011 88.5721 121.725H88.2868C88.0015 121.439 87.7163 121.439 87.431 121.439C87.1456 121.439 86.8605 121.153 86.8605 121.153H86.5751C86.2899 121.153 86.0046 120.868 85.7193 120.868C85.4341 120.868 85.4341 120.582 85.1488 120.582H84.8634C84.5783 120.582 84.2929 120.296 84.0076 120.296C83.7224 120.296 83.7224 120.01 83.4371 120.01H83.1517C82.8666 120.01 82.5812 119.724 82.5812 119.724C82.2959 119.724 82.2961 119.724 82.0107 119.439H81.7254C81.4402 119.439 81.1549 119.153 81.1549 119.153H80.8696H80.5844C80.2991 119.153 80.0137 119.153 80.0137 118.867H79.7285C79.4432 118.867 79.4432 118.867 79.1579 118.867C78.8727 118.867 78.8727 118.867 78.5874 118.867H78.3022C78.0169 118.867 78.0169 118.867 78.0169 118.867C77.7315 118.867 77.7315 118.867 77.4464 118.867H77.161H76.8757C76.5905 118.867 76.5905 118.867 76.3052 118.867H76.0198H75.7347C75.4493 118.867 75.164 118.867 75.164 118.867H74.8788H74.5935C74.3082 118.867 74.023 118.867 74.023 118.867H73.7377C73.7377 118.867 73.7377 118.867 73.4525 118.867C73.1672 118.867 72.8818 118.867 72.5966 118.867H72.3113C72.026 118.867 71.4555 119.153 71.1701 119.153C70.885 119.439 70.3145 119.439 70.0291 119.724L49.4893 131.727C49.7744 131.441 50.3451 131.441 50.6303 131.156H50.9156C51.2009 131.156 51.7714 130.87 52.0566 130.87H52.342C52.6273 130.87 52.9125 130.87 53.1978 130.87C53.1978 130.87 53.4831 130.87 53.7683 130.87C54.0536 130.87 54.339 130.87 54.339 130.87C54.6241 130.87 54.6241 130.87 54.9095 130.87C55.1948 130.87 55.1948 130.87 55.48 130.87C55.7653 130.87 55.7653 130.87 56.0505 130.87C56.3358 130.87 56.3358 130.87 56.6212 130.87C56.9063 130.87 56.9063 130.87 57.1917 130.87C57.477 130.87 57.477 130.87 57.7622 130.87C58.0475 130.87 58.3328 130.87 58.3328 130.87C58.618 130.87 58.618 130.87 58.9033 130.87C59.1885 130.87 59.4739 130.87 59.7592 131.156C60.0444 131.156 60.0444 131.156 60.3297 131.441C60.615 131.441 60.9002 131.727 61.1855 131.727C61.4709 131.727 61.756 131.727 61.756 132.013C62.0414 132.013 62.3267 132.299 62.6119 132.299C62.8972 132.299 63.1824 132.584 63.1824 132.584C63.4677 132.584 63.7531 132.87 64.0382 132.87C64.3236 132.87 64.6089 133.156 64.6089 133.156C64.8941 133.156 65.1794 133.442 65.4647 133.442C65.7499 133.442 66.0352 133.728 66.3206 133.728C66.6058 134.013 66.8911 134.013 67.1763 134.299C67.4616 134.299 67.7469 134.585 68.0321 134.585C68.6028 134.871 69.1733 135.156 69.7438 135.442C70.3145 135.728 70.5996 136.014 71.1701 136.299C71.4555 136.585 71.7408 136.585 72.026 136.871C72.026 135.728 72.5966 136.014 72.8818 136.299Z" fill="#333333"/>
<path d="M69.4606 134.012C80.3013 140.299 94.5651 153.159 111.396 176.307C89.1447 178.308 70.6018 188.881 57.7644 206.884C35.2275 156.874 41.5035 134.012 48.9208 129.725C52.344 128.011 59.476 128.297 69.4606 134.012Z" fill="#97D6C3"/>
<path d="M284.561 268.62V268.334C284.561 268.049 284.561 267.763 284.561 267.19C284.561 266.905 284.561 266.619 284.561 266.334V266.048C284.561 265.763 284.561 265.476 284.561 265.19C284.561 264.904 284.561 264.619 284.561 264.333C284.561 264.048 284.561 264.048 284.561 263.762C284.561 263.475 284.561 263.19 284.561 262.904C284.561 262.619 284.561 262.333 284.561 262.333C284.561 262.047 284.561 262.047 284.561 261.76C284.561 261.475 284.561 261.189 284.561 260.904C284.561 260.618 284.561 260.618 284.561 260.333C284.561 260.047 284.561 259.76 284.561 259.76C284.561 259.474 284.561 259.189 284.561 258.903V258.618C284.561 258.332 284.561 258.047 284.561 257.759C284.561 257.474 284.561 257.188 284.561 256.903V256.617C284.561 256.332 284.561 255.759 284.275 255.473C284.275 255.188 284.275 255.188 284.275 254.902C284.275 254.331 283.99 253.759 283.99 253.188V252.902C283.99 252.331 283.704 252.045 283.704 251.473C283.704 251.473 283.704 251.473 283.704 251.187C283.704 250.902 283.704 250.902 283.42 250.616C283.42 250.331 283.134 250.045 283.134 249.758V249.472C283.134 249.187 283.134 249.187 282.85 248.901C282.85 248.616 282.85 248.616 282.564 248.33C282.564 248.045 282.564 248.045 282.278 247.757C282.278 247.472 282.278 247.472 281.993 247.186V246.901C281.993 246.615 281.707 246.33 281.707 246.044V245.757C281.707 245.471 281.423 244.9 281.423 244.615V244.329V244.044C281.423 243.757 281.423 243.757 281.137 243.471C281.137 243.185 280.853 242.9 280.853 242.9V242.614C280.853 242.329 280.567 242.042 280.567 241.756V241.471V241.185C280.567 241.185 280.567 240.9 280.282 240.9C280.282 240.614 279.996 240.614 279.996 240.328L279.71 240.041C279.71 240.041 279.71 240.041 279.71 239.756C279.426 239.47 279.426 239.185 279.14 238.899C279.14 238.899 279.14 238.899 279.14 238.614C278.856 238.041 278.285 237.47 277.999 236.613C277.713 236.04 277.429 235.755 276.859 235.184C276.859 234.898 276.573 234.898 276.288 234.613C276.288 234.327 276.002 234.327 276.002 234.04C275.716 233.754 275.432 233.469 275.146 233.183C274.862 232.898 274.576 232.327 274.291 232.04L274.005 231.754C273.721 231.469 273.721 231.469 273.435 231.183C273.435 231.183 273.435 231.183 273.149 230.897C272.865 230.612 272.865 230.612 272.579 230.326C272.294 230.039 272.294 230.039 272.008 229.754C272.008 229.754 271.724 229.754 271.724 229.468C271.438 229.183 271.438 229.183 271.152 228.897C270.868 228.612 270.868 228.612 270.582 228.326L270.297 228.039C270.011 227.753 269.727 227.468 269.727 227.468C269.441 227.468 269.441 227.182 269.155 227.182C269.155 227.182 268.871 227.182 268.871 226.897C268.585 226.611 268.3 226.326 268.014 226.326C267.73 226.326 267.73 226.038 267.444 226.038C267.444 226.038 267.16 226.038 267.16 225.753C266.874 225.467 266.588 225.182 266.303 225.182C266.017 224.896 266.017 224.896 265.733 224.611C265.733 224.611 265.733 224.611 265.447 224.325C265.163 224.038 264.877 223.752 264.591 223.752C264.306 223.467 264.306 223.467 264.02 223.181C264.02 223.181 264.02 223.181 263.736 223.181C263.45 222.896 263.166 222.896 262.88 222.61C262.595 222.325 262.595 222.323 262.309 222.038C262.309 222.038 262.309 222.038 262.023 222.038C261.739 221.752 261.453 221.752 261.168 221.467C260.882 221.181 260.598 221.181 260.598 220.895C260.598 220.895 260.598 220.895 260.312 220.895C260.026 220.61 259.742 220.61 259.456 220.323C259.171 220.037 258.885 220.037 258.885 219.752L258.601 219.466C258.029 219.181 257.745 218.895 257.174 218.609C257.174 218.609 256.888 218.609 256.888 218.322C256.604 218.037 256.318 218.037 256.034 217.751C255.748 217.751 255.462 217.466 255.177 217.466C254.891 217.466 254.891 217.18 254.607 217.18C254.321 216.895 254.037 216.895 253.751 216.609C253.465 216.609 253.465 216.322 253.18 216.322C252.894 216.322 252.894 216.036 252.61 216.036C252.324 215.751 252.04 215.751 251.469 215.751C251.183 215.751 251.183 215.465 250.897 215.465C250.613 215.465 250.327 215.18 250.327 215.18C250.043 215.18 249.472 214.894 249.186 214.894C248.9 214.894 248.9 214.894 248.616 214.609C248.33 214.609 248.046 214.321 248.046 214.321C247.76 214.321 247.189 214.036 246.903 214.036C246.619 214.036 246.619 214.036 246.333 213.75C246.049 213.75 245.763 213.75 245.763 213.465C245.192 213.465 244.908 213.179 244.336 213.179C244.052 213.179 244.052 213.179 243.766 212.894C243.481 212.894 243.481 212.894 243.195 212.894C242.625 212.894 242.055 212.608 241.484 212.608C241.198 212.608 240.914 212.608 240.914 212.321C240.628 212.321 240.628 212.321 240.344 212.321C239.772 212.321 239.201 212.036 238.347 212.036C238.061 212.036 237.775 212.036 237.49 212.036H237.204C236.064 212.036 235.207 211.75 234.067 211.75C233.21 211.75 232.356 211.75 231.785 211.75C231.499 211.75 231.213 211.75 231.213 211.75C230.929 211.75 230.643 211.75 230.073 211.75C229.788 211.75 229.502 211.75 229.216 211.75C228.932 211.75 228.646 211.75 228.076 211.75C227.505 211.75 226.935 211.75 226.364 211.75C226.078 211.75 225.794 211.75 225.508 211.75H225.224C224.938 211.75 224.367 211.75 224.081 211.75C223.511 211.75 222.941 211.75 222.37 212.036C221.8 212.036 221.514 212.321 220.944 212.321C220.373 212.321 219.803 212.608 219.233 212.608C218.947 212.608 218.947 212.608 218.662 212.608C217.806 212.894 217.236 212.894 216.379 213.179L195.839 225.182C196.695 224.896 197.552 224.896 198.408 224.611C198.978 224.611 199.549 224.325 200.119 224.325C200.689 224.325 200.975 224.038 201.546 224.038C202.116 224.038 202.686 224.038 203.257 223.752C203.827 223.752 204.113 223.752 204.683 223.467C204.969 223.467 205.254 223.467 205.54 223.467C206.11 223.467 206.68 223.467 207.251 223.467C207.537 223.467 207.821 223.467 208.391 223.467C208.962 223.467 209.534 223.467 210.388 223.467C210.674 223.467 210.959 223.467 210.959 223.467C211.815 223.467 212.671 223.467 213.526 223.467C214.668 223.467 215.809 223.752 216.665 223.752C216.95 223.752 217.236 223.752 217.52 224.038C218.092 224.038 218.947 224.325 219.517 224.325C219.803 224.325 220.373 224.611 220.659 224.611C221.23 224.611 221.8 224.896 222.37 224.896C222.656 224.896 223.227 225.182 223.511 225.182C224.081 225.182 224.367 225.467 224.938 225.467C225.224 225.467 225.794 225.753 226.078 225.753C226.364 225.753 226.935 226.038 227.221 226.038C227.505 226.038 228.075 226.326 228.361 226.326C228.646 226.326 229.218 226.611 229.502 226.611C229.788 226.897 230.359 226.897 230.643 227.182C230.929 227.182 231.213 227.468 231.499 227.468C231.785 227.753 232.356 227.753 232.64 228.039C232.926 228.326 233.21 228.326 233.496 228.612C233.782 228.897 234.353 228.897 234.637 229.183C234.923 229.468 235.207 229.468 235.493 229.754C236.064 230.039 236.634 230.326 237.204 230.612C237.49 230.897 238.061 231.183 238.347 231.183C238.631 231.469 238.917 231.469 239.201 231.754C239.487 232.04 239.772 232.04 240.058 232.327C240.344 232.612 240.628 232.612 240.914 232.898C241.198 233.183 241.484 233.183 241.769 233.469C242.055 233.755 242.339 233.754 242.625 234.04C242.911 234.327 243.195 234.327 243.481 234.613C243.766 234.898 244.052 235.184 244.336 235.184C244.622 235.469 244.908 235.469 245.192 235.755C245.478 236.04 245.763 236.328 246.049 236.328C246.333 236.613 246.619 236.613 246.619 236.899C246.903 237.184 247.189 237.47 247.475 237.47C247.76 237.755 248.046 237.755 248.046 238.041C248.33 238.328 248.616 238.614 248.616 238.614C248.9 238.899 249.186 239.185 249.186 239.185C249.472 239.47 249.472 239.47 249.757 239.756C250.043 240.041 250.327 240.328 250.327 240.328C250.613 240.614 250.613 240.614 250.897 240.9C251.183 241.185 251.469 241.471 251.754 241.756L252.04 242.042C252.324 242.329 252.61 242.9 253.18 243.185C253.465 243.471 253.751 244.044 254.037 244.329C254.037 244.615 254.321 244.615 254.321 244.9C254.607 245.186 254.607 245.471 254.891 245.471C255.177 246.044 255.462 246.33 256.034 246.901C256.604 247.472 256.888 248.33 257.174 248.901C257.174 248.901 257.174 249.187 257.459 249.187C257.745 249.472 257.745 250.045 258.029 250.331L258.315 250.616C258.601 250.902 258.601 251.187 258.885 251.473V251.758C259.171 252.045 259.171 252.616 259.456 252.902V253.188C259.742 253.473 259.742 254.046 260.026 254.331V254.617C260.312 255.188 260.312 255.473 260.598 256.046V256.332C260.882 256.617 260.882 257.188 261.168 257.474C261.168 257.759 261.168 257.759 261.453 258.047C261.453 258.332 261.739 258.903 261.739 259.189C261.739 259.474 261.739 259.474 262.023 259.76C262.023 260.047 262.309 260.618 262.309 260.904C262.309 261.189 262.309 261.189 262.595 261.475C262.595 262.047 262.88 262.618 262.88 263.19V263.475C262.88 264.048 263.165 264.619 263.165 265.19C263.165 265.476 263.165 265.476 263.165 265.763C263.165 266.334 263.45 266.619 263.45 267.19C263.45 267.476 263.45 267.763 263.45 268.049C263.45 268.334 263.45 268.905 263.736 269.191C263.736 269.476 263.736 269.764 263.736 270.049C263.736 270.335 263.736 270.906 263.736 271.191C263.736 271.477 263.736 271.764 263.736 272.049C263.736 272.335 263.736 272.906 263.736 273.192C263.736 273.477 263.736 273.764 263.736 274.05C263.736 274.335 263.736 274.907 263.736 275.192C263.736 275.478 263.736 275.765 263.736 276.05C263.736 276.336 263.736 276.907 263.736 277.192C263.736 277.478 263.736 277.765 263.736 278.336C263.736 278.622 263.736 279.193 263.736 279.478C263.736 279.766 263.736 280.337 263.736 280.622C263.736 280.908 263.736 281.193 263.736 281.766C263.736 282.337 263.736 282.623 263.736 283.194C263.736 283.479 263.736 283.766 263.736 284.337C263.736 284.909 263.736 285.194 263.45 285.767C263.45 286.052 263.45 286.338 263.165 286.909C263.165 287.482 262.88 288.053 262.88 288.624C262.88 288.909 262.88 289.195 262.595 289.482C262.309 290.339 262.023 291.482 261.739 292.339C261.453 292.91 261.168 293.768 261.168 294.34C261.168 294.625 260.882 294.625 260.882 294.911C260.598 295.483 260.598 295.769 260.312 296.34C260.312 296.625 260.026 296.911 260.026 297.484C259.742 298.055 259.742 298.34 259.456 298.911C259.171 299.197 259.171 299.484 258.885 300.055C258.601 300.341 258.601 300.626 258.315 301.197C258.029 301.77 257.745 302.627 257.459 303.198C257.174 303.485 257.174 303.77 256.888 304.056C256.318 304.913 256.034 305.771 255.462 306.628V306.913C255.177 307.486 254.891 307.771 254.607 308.342C254.321 308.628 254.037 308.913 254.037 309.486C253.751 310.057 253.465 310.343 252.894 310.914C252.61 311.201 252.324 311.487 252.324 311.772C252.04 312.343 251.469 312.914 251.183 313.201C250.897 313.487 250.897 313.773 250.613 314.058C250.043 314.915 249.186 315.487 248.616 316.344L269.155 304.342C269.727 303.485 270.582 302.912 271.152 302.056C271.438 301.77 271.438 301.485 271.724 301.197C272.008 300.626 272.579 300.055 272.865 299.77C273.149 299.484 273.435 299.197 273.435 298.911C273.721 298.34 274.005 298.055 274.576 297.484C274.862 297.197 275.146 296.911 275.146 296.34C275.432 295.769 275.716 295.483 276.002 294.911C276.002 294.911 276.002 294.911 276.002 294.625C276.573 293.768 277.143 292.91 277.429 292.054C277.713 291.768 277.713 291.483 277.999 291.195C278.285 290.624 278.57 289.768 278.856 289.195C278.856 288.909 279.14 288.909 279.14 288.624C279.14 288.338 279.426 288.338 279.426 288.053C279.71 287.767 279.71 287.482 279.996 286.909C280.281 286.338 280.281 286.052 280.567 285.481C280.567 285.194 280.853 284.909 280.853 284.337C280.853 284.052 281.137 284.052 281.137 283.766C281.137 283.479 281.423 283.194 281.423 282.908C281.423 282.623 281.707 282.623 281.707 282.337C281.993 281.766 282.278 280.908 282.278 280.337C282.564 279.478 282.85 278.336 283.134 277.478V277.192C283.134 276.907 283.134 276.907 283.134 276.621C283.134 276.05 283.42 275.478 283.42 274.906C283.42 274.621 283.42 274.621 283.42 274.335C283.42 274.05 283.42 274.05 283.42 273.764C283.42 273.192 283.704 272.906 283.704 272.335C283.704 272.049 283.704 271.764 283.704 271.764V271.477C283.704 270.906 283.704 270.62 283.704 270.049C283.704 269.764 283.704 269.476 283.704 269.191V268.905C283.704 268.62 283.704 268.049 283.704 267.763C284.275 269.191 284.561 268.905 284.561 268.62Z" fill="#333333"/>
<path d="M236.922 230.9C246.907 236.614 253.753 244.33 257.463 250.618C264.879 263.477 270.87 293.483 248.332 317.203C235.495 284.34 217.238 252.331 194.986 224.611C211.533 220.896 226.081 224.611 236.922 230.9Z" fill="#97D6C3"/>
<path d="M94.2786 348.345C105.404 354.918 114.533 370.636 114.533 383.495V406.643C114.533 419.504 105.404 424.932 93.9934 418.36L53.4842 394.926C42.0731 388.354 33.2295 372.636 33.2295 359.775V336.629C33.2295 323.768 42.3584 318.338 53.7694 324.912L94.2786 348.345Z" fill="#D5EFE7"/>
<path d="M93.4208 363.2C97.1293 365.201 99.982 370.345 99.982 374.346V398.922C99.982 402.923 97.1293 404.638 93.4208 402.638C89.7121 400.637 86.8594 395.494 86.8594 391.493V366.916C86.8594 362.915 89.7121 361.2 93.4208 363.2Z" fill="#97D6C3"/>
<path d="M54.911 340.913C58.6195 342.914 61.4724 348.058 61.4724 352.059V376.635C61.4724 380.638 58.6195 382.351 54.911 380.35C51.2025 378.35 48.3496 373.207 48.3496 369.206V344.629C48.3496 340.628 51.4876 338.913 54.911 340.913Z" fill="#97D6C3"/>
<path d="M138.492 368.926C138.492 368.639 138.492 368.354 138.492 368.068C138.492 367.782 138.492 367.782 138.492 367.497C138.492 367.497 138.492 367.497 138.492 367.211V366.926C138.492 366.639 138.492 366.353 138.492 365.782C138.492 365.497 138.492 365.211 138.207 364.638C138.207 364.353 138.207 364.067 137.921 363.782C137.921 363.496 137.922 363.211 137.636 362.638V362.352V362.067C137.636 361.781 137.636 361.781 137.636 361.496C137.636 361.21 137.351 360.637 137.351 360.352C137.351 360.066 137.066 359.781 137.066 359.495C137.066 359.495 137.066 359.495 137.066 359.21C137.066 358.923 136.78 358.637 136.78 358.066C136.78 357.78 136.495 357.495 136.495 356.922C136.495 356.922 136.495 356.922 136.495 356.637C136.495 356.637 136.495 356.637 136.495 356.351C136.495 356.066 136.21 355.78 136.21 355.78C136.21 355.494 135.925 355.209 135.925 354.922C135.925 354.636 135.639 354.351 135.639 354.351C135.354 354.065 135.354 353.78 135.069 353.494C134.783 353.209 134.783 352.636 134.498 352.35C134.498 352.35 134.498 352.35 134.498 352.065C134.498 352.065 134.498 352.065 134.498 351.779C134.213 351.494 134.213 351.208 133.928 350.921C133.642 350.635 133.642 350.35 133.357 349.779C133.357 349.493 133.072 349.493 133.072 349.208C133.072 349.208 133.072 349.208 133.072 348.921C132.787 348.635 132.787 348.349 132.501 348.064C132.216 347.493 131.931 347.207 131.645 346.635C131.645 346.635 131.645 346.635 131.645 346.349C131.36 345.778 130.79 345.207 130.504 344.634C130.219 344.349 129.934 343.778 129.649 343.492C129.363 343.205 129.078 342.919 128.793 342.634C128.507 342.348 128.222 342.063 127.937 341.777C127.652 341.492 127.366 341.204 127.081 340.919C127.081 340.919 127.081 340.919 127.081 340.633C126.796 340.348 126.796 340.348 126.511 340.062C126.225 339.777 125.94 339.491 125.655 339.204L125.369 338.918C125.369 338.918 125.369 338.918 125.084 338.633L124.799 338.347C124.514 338.062 124.228 337.776 123.943 337.491L123.658 337.204C123.658 337.204 123.658 337.204 123.373 336.918L123.087 336.633C122.802 336.347 122.517 336.061 122.231 336.061C121.946 335.776 121.661 335.776 121.661 335.49C121.375 335.203 121.09 335.203 120.805 334.918C120.52 334.632 120.234 334.632 119.949 334.347C119.949 334.347 119.949 334.347 119.664 334.347L79.1546 310.913C78.8694 310.913 78.5841 310.627 78.5841 310.627H78.2987C78.2987 310.627 78.0136 310.627 78.0136 310.342H77.7282C77.7282 310.342 77.4429 310.342 77.4429 310.056H77.1577C76.8724 310.056 76.5871 309.771 76.3019 309.771C76.0165 309.771 75.7312 309.483 75.446 309.483H75.1607H74.8755C74.8755 309.483 74.8755 309.483 74.5902 309.483H74.3049H74.0197H73.7344H73.449C73.449 309.483 73.449 309.483 73.1639 309.483H72.8785H72.5932C72.5932 309.483 72.5932 309.483 72.308 309.483H72.0227C71.7375 309.483 71.7373 309.483 71.4522 309.483H71.1668C70.8817 309.483 70.8817 309.483 70.5963 309.483C70.5963 309.483 70.5963 309.483 70.311 309.483H70.0258C69.7405 309.483 69.4552 309.483 69.4552 309.483C69.4552 309.483 69.4552 309.483 69.17 309.483C68.8846 309.483 68.5993 309.483 68.3141 309.483C67.7436 309.483 67.4583 309.771 66.8878 309.771C66.6025 309.771 66.6025 309.771 66.3171 310.056H66.0319C65.7466 310.056 65.4613 310.342 65.1761 310.342L41.498 324.345C41.7834 324.059 42.0687 324.059 42.3539 324.059H42.6392C42.9246 324.059 42.9246 323.773 43.2097 323.773C43.2097 323.773 43.2097 323.773 43.4951 323.773C43.7804 323.488 44.3509 323.486 44.9214 323.486C45.2067 323.486 45.4919 323.486 45.7773 323.486H46.0626C46.3478 323.486 46.3478 323.486 46.6331 323.486H46.9184C47.2036 323.486 47.2036 323.486 47.4889 323.486H47.7743C48.0594 323.486 48.0594 323.486 48.3448 323.486C48.6299 323.486 48.63 323.486 48.9153 323.486H49.2006C49.4858 323.486 49.4858 323.486 49.7711 323.486H50.0565C50.3416 323.486 50.3416 323.486 50.627 323.486H50.9123C51.1975 323.486 51.1975 323.488 51.4828 323.773H51.768C52.0533 323.773 52.3386 324.059 52.6238 324.059C52.9092 324.059 53.1945 324.345 53.4797 324.345H53.765C54.0503 324.345 54.3355 324.63 54.3355 324.63C54.3355 324.63 54.6208 324.63 54.6208 324.916C54.9062 325.201 55.1913 325.201 55.4767 325.488L95.9859 348.921C96.5564 349.208 97.4123 349.779 97.9829 350.35C98.5534 350.921 99.1239 351.208 99.6944 351.779C99.6944 351.779 99.6944 351.779 99.9798 352.065C100.55 352.636 101.121 352.921 101.691 353.494C101.691 353.494 101.691 353.494 101.977 353.78C102.547 354.351 103.118 354.922 103.688 355.494C103.688 355.494 103.688 355.494 103.688 355.78C104.259 356.351 104.829 356.922 105.4 357.78C105.971 358.352 106.541 359.21 107.112 359.781C107.682 360.352 107.968 361.21 108.538 361.781C108.823 362.352 109.109 362.638 109.394 363.211C109.679 363.496 109.965 364.067 109.965 364.353C109.965 364.638 110.25 364.638 110.25 364.924C110.535 365.497 110.82 366.068 111.391 366.926C111.391 366.926 111.391 366.926 111.391 367.211C111.676 368.068 112.247 368.639 112.532 369.497C112.817 370.354 113.103 370.927 113.388 371.783C113.388 371.783 113.388 371.783 113.388 372.069C113.673 372.927 113.958 373.784 114.244 374.64C114.244 374.64 114.244 374.64 114.244 374.928C114.529 375.784 114.814 376.355 114.814 377.213V377.499C115.099 378.356 115.099 379.214 115.385 379.785C115.385 380.642 115.67 381.5 115.67 382.071C115.67 382.071 115.67 382.071 115.67 382.356C115.67 383.215 115.67 384.071 115.67 384.644V407.791C115.67 408.076 115.67 408.649 115.67 408.934V409.22C115.67 409.506 115.67 409.791 115.67 410.077V410.364C115.67 410.649 115.67 410.649 115.67 410.935C115.67 411.22 115.67 411.22 115.67 411.506C115.67 411.791 115.67 411.792 115.67 412.077C115.67 412.364 115.67 412.364 115.67 412.65C115.67 412.935 115.67 412.935 115.67 413.221C115.67 413.506 115.67 413.506 115.385 413.792C115.385 414.077 115.385 414.077 115.385 414.077C115.385 414.365 115.385 414.65 115.099 414.65V414.936C115.099 415.221 114.814 415.507 114.529 416.078C114.244 416.651 113.958 416.936 113.958 417.222C113.673 417.507 113.388 417.793 113.388 418.078C113.388 418.078 113.388 418.078 113.103 418.365C112.817 418.651 112.532 418.937 112.532 419.222C112.247 419.508 111.961 419.793 111.676 419.793C111.676 419.793 111.676 419.793 111.391 420.079C111.106 420.366 110.82 420.366 110.535 420.651L134.213 406.649C134.498 406.363 134.783 406.363 135.069 406.076C135.069 406.076 135.069 406.076 135.354 405.79C135.639 405.505 135.925 405.219 136.21 405.219C136.495 404.934 136.78 404.648 136.78 404.361C136.78 404.361 136.78 404.361 137.066 404.075C137.351 403.79 137.636 403.504 137.636 403.219C137.922 402.933 138.207 402.361 138.207 402.075C138.492 401.789 138.492 401.504 138.777 400.933V400.647C138.777 400.36 139.063 400.36 139.063 400.075C139.063 400.075 139.063 400.075 139.063 399.789V399.504C139.063 399.218 139.063 399.218 139.348 398.932V398.647V398.36C139.348 398.074 139.348 398.074 139.348 397.789V397.503V397.218C139.348 396.932 139.348 396.932 139.348 396.646V396.359V396.074V395.788C139.348 395.788 139.348 395.788 139.348 395.503C139.348 395.217 139.348 395.217 139.348 394.932V394.646C139.348 394.359 139.348 394.073 139.348 393.788V370.639C138.492 369.497 138.492 369.212 138.492 368.926Z" fill="#333333"/>
<path d="M328.775 111.441C328.204 111.441 327.919 111.156 327.348 111.156C327.064 111.156 326.778 111.156 326.492 110.87C325.637 110.584 324.496 110.584 323.64 110.584C323.354 110.584 323.07 110.584 322.784 110.584C322.213 110.584 321.643 110.584 321.073 110.584C320.787 110.584 320.216 110.584 319.93 110.584C319.36 110.584 319.076 110.584 318.505 110.584C318.219 110.584 317.649 110.584 317.363 110.584C317.079 110.584 316.508 110.584 316.222 110.584C315.938 110.584 315.366 110.584 315.082 110.584C314.796 110.584 314.225 110.584 313.941 110.584C313.655 110.584 313.085 110.584 312.799 110.87C312.228 110.87 311.944 111.156 311.374 111.156C311.088 111.156 310.802 111.156 310.231 111.441C309.661 111.441 309.091 111.727 308.805 111.727C308.52 111.727 308.234 112.013 307.95 112.013C307.094 112.299 306.237 112.584 305.383 112.87C305.097 113.156 304.526 113.156 304.24 113.442C303.956 113.442 303.67 113.728 303.67 113.728C303.1 114.013 302.529 114.299 301.959 114.585L270.863 132.589C270.008 132.589 268.866 132.589 268.011 132.303C267.725 132.303 267.441 132.303 267.441 132.303C266.299 132.303 264.874 132.303 263.731 132.303C263.447 132.303 263.447 132.303 263.161 132.303C262.02 132.303 260.88 132.303 259.737 132.589C259.737 132.589 259.737 132.589 259.453 132.589C258.312 132.589 257.17 132.875 255.745 132.875C255.459 132.875 255.459 132.875 255.173 132.875C254.032 133.16 252.891 133.16 251.751 133.446C251.465 133.446 251.18 133.446 250.894 133.732C250.608 133.732 250.324 134.018 249.754 134.018C249.468 134.018 248.897 134.303 248.611 134.303C248.327 134.303 248.041 134.589 247.471 134.589C247.186 134.589 246.9 134.875 246.614 134.875C246.044 135.161 245.474 135.161 245.189 135.447C244.903 135.447 244.619 135.732 244.333 135.732C243.763 136.018 243.192 136.018 242.622 136.304C242.336 136.304 242.336 136.59 242.05 136.59C241.195 136.875 240.339 137.447 239.483 137.733C239.198 137.733 239.198 138.018 238.912 138.018C238.058 138.59 237.201 138.876 236.345 139.447C233.207 141.162 230.924 143.162 228.929 145.163C227.216 146.878 226.076 148.592 225.505 150.593C225.219 150.878 225.219 151.45 225.219 151.736C224.935 152.307 224.935 152.879 224.935 153.165V159.452L199.544 174.027C200.116 174.312 200.971 174.312 201.541 174.598C201.827 174.598 202.111 174.598 202.397 174.883C202.968 174.883 203.254 175.169 203.824 175.169C204.108 175.169 204.394 175.169 204.68 175.169C205.251 175.169 205.535 175.169 206.105 175.456C206.391 175.456 206.677 175.456 206.962 175.456C207.532 175.456 208.102 175.456 208.673 175.456C208.959 175.456 208.959 175.456 209.245 175.456C209.815 175.456 210.67 175.456 211.242 175.456C211.526 175.456 211.526 175.456 211.812 175.456C212.382 175.456 212.953 175.456 213.237 175.456C213.523 175.456 213.809 175.456 214.093 175.456C214.664 175.456 214.95 175.456 215.52 175.456C215.806 175.456 216.09 175.456 216.376 175.456C216.947 175.456 217.517 175.456 217.801 175.169C218.087 175.169 218.087 175.169 218.373 175.169C218.944 175.169 219.798 174.883 220.37 174.883H220.655C221.225 174.883 221.795 174.598 222.367 174.312C222.652 174.312 222.938 174.312 222.938 174.027C223.508 174.027 223.793 173.741 224.363 173.455C224.649 173.455 224.935 173.168 224.935 173.168C225.505 172.883 225.79 172.883 226.076 172.597C226.36 172.597 226.36 172.312 226.646 172.312C227.216 172.026 227.787 171.741 228.357 171.455L259.453 153.45C271.719 154.308 284.558 152.307 293.971 146.592C300.532 142.591 304.526 137.733 305.667 132.875V126.587L331.058 112.013C330.772 112.013 330.486 111.727 330.202 111.727C329.345 111.727 329.061 111.441 328.775 111.441Z" fill="#333333"/>
<path d="M224.361 133.157V153.162C224.361 152.59 224.647 152.019 224.647 151.733C224.647 151.447 224.932 150.876 224.932 150.59C225.788 148.589 226.929 146.875 228.355 145.16C230.352 143.16 232.634 141.159 235.773 139.445C236.628 138.873 237.484 138.587 238.341 138.016C238.625 138.016 238.625 137.73 238.911 137.73C239.766 137.444 240.622 136.873 241.478 136.587C241.763 136.587 241.763 136.301 242.049 136.301C242.619 136.015 243.189 136.015 243.76 135.729C244.046 135.729 244.33 135.444 244.616 135.444C245.186 135.158 245.472 135.158 246.043 134.872C246.327 134.872 246.613 134.586 246.899 134.586C247.183 134.586 247.469 134.301 248.04 134.301C248.324 134.301 248.894 134.015 249.18 134.015C249.466 134.015 249.751 133.729 250.321 133.729C250.607 133.729 250.891 133.729 251.177 133.443C252.318 133.157 253.459 132.872 254.601 132.872C254.885 132.872 254.885 132.872 255.171 132.872C256.312 132.586 257.453 132.586 258.879 132.586C258.879 132.586 258.879 132.586 259.165 132.586C260.306 132.586 261.447 132.3 262.589 132.3C262.873 132.3 262.873 132.3 263.159 132.3C264.3 132.3 265.727 132.3 266.867 132.3C267.153 132.3 267.438 132.3 267.438 132.3C268.294 132.3 269.435 132.3 270.291 132.586V106.294C269.435 106.294 268.294 106.294 267.438 106.009C267.153 106.009 266.867 106.009 266.867 106.009C265.727 106.009 264.3 106.009 263.159 106.009C262.873 106.009 262.873 106.009 262.589 106.009C261.447 106.009 260.306 106.009 259.165 106.294C259.165 106.294 259.165 106.294 258.879 106.294C257.739 106.294 256.598 106.58 255.171 106.58C254.885 106.58 254.885 106.58 254.601 106.58C253.459 106.866 252.318 106.866 251.177 107.152C250.891 107.152 250.607 107.152 250.321 107.438C250.037 107.438 249.751 107.723 249.18 107.723C248.894 107.723 248.324 108.009 248.04 108.009C247.754 108.009 247.469 108.295 246.899 108.295C246.613 108.295 246.327 108.581 246.043 108.581C245.472 108.866 244.902 108.866 244.616 109.152C244.33 109.152 244.046 109.438 243.76 109.438C243.189 109.724 242.619 109.724 242.049 110.01C241.763 110.01 241.763 110.295 241.478 110.295C240.622 110.581 239.766 111.153 238.911 111.438H238.625C238.625 111.438 238.341 111.438 238.341 111.724C237.484 112.296 236.628 112.582 235.773 113.153C235.201 113.439 234.631 113.725 234.06 114.01C233.776 114.01 233.776 114.296 233.49 114.296C233.204 114.582 232.92 114.868 232.349 114.868C232.063 114.868 232.063 115.154 231.779 115.154C231.493 115.439 231.207 115.725 230.923 115.725C230.637 115.725 230.637 116.011 230.352 116.011C230.066 116.297 229.782 116.582 229.496 116.582C229.212 116.582 229.212 116.868 228.926 116.868C228.64 117.154 228.355 117.44 228.069 117.726L227.785 118.011C227.499 118.297 227.215 118.869 226.929 119.154C226.929 119.154 226.929 119.154 226.929 119.44C226.643 119.726 226.358 120.012 226.072 120.583L225.788 120.869C225.502 121.155 225.502 121.441 225.218 121.726C225.218 122.012 224.932 122.012 224.932 122.298C224.932 122.584 224.647 122.87 224.647 123.155C224.647 123.441 224.361 123.441 224.361 123.727C224.361 124.013 224.075 124.298 224.075 124.584C224.075 124.87 224.075 124.87 223.791 125.156C223.791 125.441 223.505 125.727 223.505 126.013V126.299C223.505 126.585 223.221 127.156 223.221 127.442V127.728C223.221 128.013 223.221 128.299 223.221 128.871C223.221 129.157 223.221 129.157 223.221 129.442C223.791 130.585 224.075 132.014 224.361 133.157Z" fill="#80DEA4" stroke="black" stroke-width="0.635789" stroke-miterlimit="10" stroke-linejoin="round"/>
<path d="M301.667 114.583C302.239 114.297 302.81 114.012 303.38 113.726C303.664 113.726 303.664 113.44 303.95 113.44C304.236 113.155 304.807 113.155 305.091 112.869C305.947 112.583 306.804 112.297 307.658 112.011C307.944 112.011 308.229 111.726 308.515 111.726C309.085 111.726 309.655 111.44 309.941 111.44C310.226 111.44 310.512 111.44 311.082 111.154C311.653 111.154 311.939 110.868 312.509 110.868C312.793 110.868 313.365 110.868 313.65 110.583C313.936 110.583 314.506 110.583 314.79 110.583C315.076 110.583 315.647 110.583 315.933 110.583C316.217 110.583 316.787 110.583 317.073 110.583C317.358 110.583 317.93 110.583 318.214 110.583C318.784 110.583 319.07 110.583 319.641 110.583C319.927 110.583 320.497 110.583 320.781 110.583C321.352 110.583 321.924 110.583 322.494 110.583C322.778 110.583 323.064 110.583 323.349 110.583C324.205 110.583 325.346 110.868 326.202 110.868C326.488 110.868 326.772 110.868 327.058 111.154C327.629 111.154 327.913 111.44 328.483 111.44C328.769 111.44 329.055 111.726 329.34 111.726C329.626 111.726 329.91 112.011 330.196 112.011L335.901 108.582C341.036 105.724 343.603 101.723 343.033 97.7225C343.033 97.4368 343.033 97.1509 343.033 96.8652C343.033 96.5795 343.033 96.2936 342.748 96.2936C342.748 96.0079 342.748 95.7221 342.462 95.4364C342.462 95.1505 342.178 95.1505 342.178 94.8648C342.178 94.5789 341.892 94.2932 341.892 94.0075C341.606 93.7217 341.606 93.436 341.322 93.1501C341.036 92.8644 340.751 92.5785 340.465 92.007C340.465 92.007 340.465 92.007 340.181 91.7212C339.895 91.4354 339.609 91.1497 339.039 90.5781C338.754 90.2924 338.468 90.2924 338.184 90.0065L337.898 89.7208L337.614 89.435C337.328 89.1493 337.042 89.1493 336.757 88.8634C336.471 88.5777 336.187 88.5777 335.901 88.292C335.331 88.0061 335.045 87.7204 334.474 87.4346C334.19 87.1489 333.904 87.1489 333.62 87.1489C333.334 87.1489 333.049 86.863 333.049 86.863C332.477 86.5773 331.907 86.2914 331.052 86.0057C330.766 86.0057 330.48 85.72 330.196 85.72C329.91 85.72 329.34 85.4342 329.055 85.4342C328.769 85.4342 328.485 85.1485 328.199 85.1485C327.629 85.1485 327.343 84.8626 326.772 84.8626C326.488 84.8626 326.202 84.8626 325.916 84.5769C325.061 84.291 323.919 84.291 323.064 84.291C322.778 84.291 322.494 84.291 322.208 84.291C321.638 84.291 321.067 84.291 320.497 84.291C320.211 84.291 319.641 84.291 319.355 84.291C318.784 84.291 318.5 84.291 317.93 84.291C317.644 84.291 317.073 84.291 316.787 84.291C316.503 84.291 315.933 84.291 315.647 84.291C315.362 84.291 314.79 84.291 314.506 84.291C314.22 84.291 313.65 84.291 313.365 84.291C313.079 84.291 312.509 84.291 312.223 84.5769C311.653 84.5769 311.368 84.8626 310.798 84.8626C310.512 84.8626 310.226 84.8626 309.656 85.1485C309.085 85.1485 308.515 85.4342 308.229 85.4342C307.944 85.4342 307.658 85.72 307.374 85.72C306.518 86.0057 305.661 86.2914 304.807 86.5773C304.521 86.863 303.95 86.863 303.664 87.1489C303.38 87.1489 303.38 87.4346 303.094 87.4346C302.524 87.7204 301.953 88.0061 301.383 88.292L270.287 106.296V132.587L301.667 114.583Z" fill="#97D6C3"/>
<path d="M224.362 153.163V133.158L224.076 133.444L193.552 151.162C192.98 151.448 192.41 152.019 191.84 152.305C191.555 152.305 191.555 152.591 191.269 152.591C190.985 152.877 190.699 153.163 190.413 153.448C190.129 153.734 190.129 153.734 189.843 154.02C189.558 154.306 189.272 154.591 188.988 154.877C188.702 155.163 188.702 155.163 188.416 155.449C188.132 155.735 188.132 156.02 187.846 156.02C187.846 156.306 187.561 156.306 187.561 156.592C187.275 156.878 187.275 157.163 186.991 157.449C186.991 157.735 186.705 157.735 186.705 158.021C186.705 158.307 186.419 158.592 186.419 158.878C186.419 159.164 186.419 159.164 186.135 159.45C186.135 159.735 186.135 160.021 185.849 160.307C185.849 160.593 185.849 160.593 185.849 160.879C185.849 161.164 185.849 161.45 185.849 161.736C185.849 165.45 188.132 169.166 192.98 171.737C194.693 172.881 196.69 173.738 198.971 174.31L224.362 159.735V153.163Z" fill="#97D6C3"/>
<mask id="mask1_1447_56080" style="mask-type:luminance" maskUnits="userSpaceOnUse" x="193" y="0" width="138" height="176">
<path d="M329.642 111.724C329.356 111.724 329.072 111.438 328.786 111.438C328.216 111.438 327.931 111.153 327.359 111.153C327.075 111.153 326.789 111.153 326.505 110.867C325.648 110.581 324.508 110.581 323.651 110.581C323.367 110.581 323.081 110.581 322.795 110.581C322.225 110.581 321.654 110.581 321.084 110.581C320.798 110.581 320.228 110.581 319.943 110.581C319.373 110.581 319.087 110.581 318.517 110.581C318.231 110.581 317.66 110.581 317.376 110.581C317.09 110.581 316.52 110.581 316.234 110.581C315.949 110.581 315.379 110.581 315.093 110.581C314.809 110.581 314.237 110.581 313.952 110.581C313.666 110.581 313.096 110.581 312.812 110.867C312.241 110.867 311.955 111.153 311.385 111.153C311.099 111.153 310.815 111.153 310.244 111.438C309.958 111.438 309.958 111.438 309.672 111.438C317.946 86.5759 319.657 58.2841 312.526 36.2793C307.105 19.4185 297.406 9.41632 285.996 6.55856L285.139 6.27279L256.612 0.271484V0.557259C245.485 -0.871621 233.218 4.27235 221.808 16.8466C197.56 43.7095 187.289 94.0061 198.414 128.871C203.551 144.874 212.68 154.876 223.233 158.306V158.591H223.805V159.735L198.414 174.308C198.986 174.596 199.841 174.596 200.411 174.881C200.697 174.881 200.982 174.881 201.268 175.167C201.838 175.167 202.124 175.452 202.694 175.452C202.979 175.452 203.265 175.452 203.551 175.452C204.121 175.452 204.406 175.452 204.976 175.738C205.262 175.738 205.548 175.738 205.832 175.738C206.403 175.738 206.973 175.738 207.543 175.738C207.829 175.738 207.829 175.738 208.115 175.738C208.686 175.738 209.54 175.738 210.112 175.738C210.397 175.738 210.397 175.738 210.683 175.738C211.253 175.738 211.823 175.738 212.108 175.738C212.394 175.738 212.68 175.738 212.964 175.738C213.534 175.738 213.82 175.738 214.391 175.738C214.677 175.738 214.961 175.738 215.247 175.738C215.817 175.738 216.388 175.738 216.674 175.452C216.958 175.452 216.958 175.452 217.244 175.452C217.814 175.452 218.669 175.167 219.241 175.167H219.525C220.096 175.167 220.666 174.881 221.238 174.596C221.522 174.596 221.808 174.596 221.808 174.308C222.379 174.308 222.663 174.023 223.233 173.737C223.519 173.737 223.805 173.452 223.805 173.452C224.376 173.166 224.66 173.166 224.946 172.881C225.23 172.881 225.23 172.595 225.516 172.595C226.087 172.308 226.657 172.022 227.227 171.737L242.918 162.592L258.323 153.733C268.593 154.591 279.148 152.876 287.993 149.161C289.704 148.304 291.415 147.732 293.127 146.875C299.689 142.874 303.683 138.016 304.823 133.157V126.87L330.213 112.296C330.213 112.01 329.928 111.724 329.642 111.724Z" fill="white"/>
</mask>
<g mask="url(#mask1_1447_56080)">
<path d="M253.188 164.304L256.326 149.443C258.609 147.443 261.176 145.157 263.459 142.585C287.708 115.722 297.977 65.4251 286.852 30.5604C285.711 27.4169 284.569 24.5592 283.144 21.7013L286.281 6.2695L257.182 -0.0175781V0.268198C246.057 -1.16068 233.79 3.98329 222.378 16.5574C198.13 43.4205 187.86 93.7169 198.986 128.582C204.121 144.585 213.25 154.587 223.805 158.017V158.302L253.188 164.304Z" fill="#333333"/>
<path d="M314.621 94.5695C323.552 50.8104 310.397 11.1593 285.236 6.00632C260.077 0.85336 232.441 32.1498 223.509 75.9089C214.578 119.668 227.735 159.319 252.894 164.471C278.055 169.626 305.691 138.329 314.621 94.5695Z" fill="#F8F0E5"/>
<path d="M306.24 92.8536C313.498 57.2896 302.739 25.0508 282.21 20.8464C261.681 16.6417 239.155 42.0635 231.897 77.6275C224.638 113.191 235.396 145.43 255.925 149.635C276.454 153.839 298.982 128.418 306.24 92.8536Z" fill="#D05F0D"/>
</g>
<path d="M500.236 440.648L609.783 504.09L419.504 614.686L309.957 551.244L500.236 440.648ZM437.475 592.967L571.271 515.236C560.145 508.662 559.004 498.946 568.988 492.945C569.56 492.659 569.844 492.374 570.414 492.374L520.776 463.51C520.492 463.795 519.92 464.082 519.636 464.368C509.651 470.084 492.534 469.511 481.408 463.224L347.614 541.242C358.74 547.814 359.595 557.53 349.611 563.532L399.249 592.11C408.948 586.107 426.065 586.68 437.475 592.967Z" fill="white"/>
<path d="M500.236 422.929L609.783 486.372L419.504 596.968L309.957 533.524L500.236 422.929ZM437.475 575.249L571.271 497.517C560.145 490.944 559.004 481.228 568.988 475.227C569.56 474.941 569.844 474.655 570.414 474.655L520.776 445.791C520.492 446.077 519.92 446.363 519.636 446.648C509.651 452.364 492.534 451.793 481.408 445.506L347.614 523.522C358.74 530.096 359.595 539.812 349.611 545.814L399.249 574.39C408.948 568.389 426.065 568.675 437.475 575.249Z" fill="white"/>
<path d="M571.263 497.234L437.468 575.252C426.342 568.678 408.941 568.392 399.242 574.108L349.603 545.531C359.588 539.816 358.731 529.814 347.605 523.24L481.401 445.224C492.527 451.796 509.643 452.082 519.628 446.366C520.199 446.08 520.483 445.795 520.769 445.509L570.407 474.373C569.837 474.659 569.266 474.659 568.98 474.944C558.997 480.945 559.852 490.948 571.263 497.234ZM412.365 537.53C434.901 550.674 474.555 548.674 500.799 533.529C527.045 518.097 530.184 495.234 507.646 482.089C485.109 468.943 445.456 470.943 419.21 486.09C392.965 501.521 389.827 524.669 412.365 537.53Z" fill="#8ECC37"/>
<path d="M500.236 404.924L609.783 468.366L419.504 578.961L309.957 515.519L500.236 404.924ZM437.191 557.528L570.985 479.797C559.859 473.223 558.718 463.508 568.703 457.507C569.274 457.22 569.56 456.935 570.13 456.935L520.492 428.072C520.206 428.358 519.636 428.643 519.35 428.929C509.366 434.644 492.249 434.073 481.124 427.785L347.328 505.803C358.454 512.375 359.31 522.091 349.325 528.093L398.963 556.671C408.948 550.384 426.065 550.955 437.191 557.528Z" fill="white"/>
<path d="M570.981 479.51L437.186 557.527C426.06 550.953 408.943 550.668 398.96 556.384L349.321 527.807C359.306 522.091 358.451 512.089 347.325 505.515L481.119 427.499C492.245 434.071 509.361 434.357 519.347 428.641C519.917 428.356 520.201 428.07 520.487 427.785L570.125 456.647C569.555 456.934 568.984 456.934 568.698 457.22C558.999 463.221 559.856 472.937 570.981 479.51ZM412.367 519.803C434.905 532.95 474.557 530.949 500.803 515.803C527.049 500.372 530.186 477.509 507.65 464.363C485.113 451.218 445.46 453.219 419.215 468.364C392.969 483.796 389.831 506.659 412.367 519.803Z" fill="#8ECC37"/>
<path d="M507.653 446.646C530.191 459.791 527.053 482.654 500.808 498.086C474.562 513.518 434.909 515.231 412.372 502.087C389.834 488.941 392.974 466.079 419.219 450.933C445.463 435.501 485.118 433.5 507.653 446.646ZM479.413 492.085L483.977 494.656L493.106 489.512L488.541 486.94L492.82 484.369V474.652L483.977 469.508L475.989 468.08L446.32 474.938L443.752 474.367L442.041 473.508V470.937L453.167 464.365L464.293 461.22L458.302 454.077L445.749 457.791L442.041 460.078L437.477 457.505L428.348 462.65L432.912 465.221L428.348 467.793V477.509L437.191 482.654L445.179 484.083L474.848 477.224L477.415 477.796L479.126 478.653V481.225L468.001 487.798L456.875 490.941L462.866 498.086L475.418 494.371L479.413 492.085Z" fill="#278704"/>
<path d="M500.236 387.209L609.783 450.651L419.504 561.246L309.957 497.804L500.236 387.209ZM437.475 539.527L571.271 461.797C560.145 455.225 559.004 445.508 568.988 439.507C569.56 439.22 569.844 438.934 570.414 438.934L520.776 410.072C520.492 410.357 519.92 410.643 519.636 410.928C509.651 416.644 492.534 416.073 481.408 409.785L347.614 487.802C358.74 494.375 359.595 504.091 349.611 510.092L399.249 538.671C408.948 532.67 426.065 533.241 437.475 539.527Z" fill="white"/>
<path d="M571.263 461.792L437.468 539.808C426.342 533.236 408.941 532.95 399.242 538.666L349.603 510.087C359.588 504.373 358.731 494.37 347.605 487.797L481.401 409.781C492.527 416.354 509.643 416.639 519.628 410.923C520.199 410.638 520.483 410.352 520.769 410.067L570.407 438.929C569.837 439.216 569.266 439.216 568.98 439.502C558.997 445.218 559.852 455.22 571.263 461.792ZM412.365 502.086C434.901 515.232 474.555 513.232 500.799 498.085C527.045 482.654 530.184 459.791 507.646 446.645C485.109 433.501 445.456 435.501 419.21 450.646C392.965 466.078 389.827 488.941 412.365 502.086Z" fill="#8ECC37"/>
<path d="M507.653 428.648C530.191 441.794 527.053 464.657 500.808 480.089C474.562 495.52 434.909 497.235 412.372 484.09C389.834 470.944 392.974 448.081 419.219 432.936C445.463 417.504 485.118 415.789 507.653 428.648ZM479.413 474.374L483.977 476.945L493.106 471.8L488.541 469.229L492.82 466.657V456.941L483.977 451.796L475.989 450.369L446.32 457.226L443.752 456.655L442.041 455.797V453.226L453.167 446.653L464.293 443.509L458.302 436.364L445.749 440.079L442.041 442.08L437.477 439.508L428.348 444.653L432.912 447.224L428.348 449.796V459.512L437.191 464.657L445.179 466.085L474.848 459.227L477.415 459.798L479.126 460.656V463.228L468.001 469.8L456.875 472.944L462.866 480.089L475.418 476.374L479.413 474.374Z" fill="#278704"/>
<path d="M500.236 369.497L609.783 432.939L419.504 543.534L309.957 480.092L500.236 369.497ZM437.475 521.815L571.271 444.083C560.145 437.511 559.004 427.795 568.988 421.793C569.56 421.508 569.844 421.222 570.414 421.222L520.776 392.358C520.492 392.644 519.92 392.929 519.636 393.216C509.651 398.932 492.534 398.359 481.408 392.073L347.614 470.09C358.74 476.663 359.595 486.379 349.611 492.38L399.249 520.957C408.948 514.956 426.065 515.241 437.475 521.815Z" fill="white"/>
<path d="M458.016 436.363L464.007 443.508L453.167 446.651L442.041 453.225V455.796L443.466 456.653L446.32 457.226L475.989 450.366L483.976 451.795L492.82 456.938V466.369L488.256 468.943L492.82 471.8L483.976 476.944L479.411 474.371L475.703 476.371L463.151 480.087L456.875 472.943L468.001 469.799L479.127 463.227V460.654L477.7 459.797L474.847 459.226L445.179 466.084L437.477 464.655L428.633 459.512L428.347 450.081L432.913 447.509L428.347 444.65L437.477 439.507L442.041 442.079L445.464 440.079L458.016 436.363Z" fill="#8ECC37"/>
<path d="M571.263 443.798L437.468 521.814C426.342 515.241 408.941 514.956 399.242 520.672L349.603 492.093C359.588 486.379 358.731 476.375 347.605 469.803L481.401 391.787C492.527 398.359 509.643 398.645 519.628 392.929C520.199 392.644 520.483 392.358 520.769 392.073L570.407 420.935C569.837 421.222 569.266 421.222 568.98 421.508C558.997 427.509 559.852 437.511 571.263 443.798ZM412.365 484.091C434.901 497.238 474.555 495.237 500.799 480.091C527.045 464.66 530.184 441.797 507.646 428.651C485.109 415.506 445.456 417.507 419.21 432.652C392.965 448.084 389.827 471.232 412.365 484.091Z" fill="#8ECC37"/>
<path d="M609.779 432.938V443.798L419.5 554.393L419.784 543.533L609.779 432.938Z" fill="#333333"/>
<path d="M507.653 410.928C530.191 424.072 527.053 446.935 500.808 462.367C474.562 477.799 434.909 479.514 412.372 466.368C389.834 453.222 392.974 430.361 419.219 415.214C445.463 399.782 485.118 398.067 507.653 410.928ZM479.413 456.366L483.977 458.938L493.106 453.795L488.541 451.221L493.106 448.65V438.933L484.261 433.789L476.273 432.361L446.605 439.219L444.038 438.648L442.325 437.79V435.218L453.451 428.646L464.577 425.502L458.586 418.358L446.035 422.072L442.325 424.072L437.761 421.501L428.632 426.645L433.197 429.217L428.918 431.788V441.505L437.761 446.65L445.749 448.079L475.418 441.219L477.986 441.79L479.697 442.649V445.22L468.571 451.794L457.445 454.937L463.436 462.082L475.989 458.366L479.413 456.366Z" fill="#278704"/>
<path d="M500.236 351.49L609.783 414.932L419.504 525.815L309.957 462.371L500.236 351.49ZM437.191 504.096L570.985 426.364C559.859 419.791 558.718 410.075 568.703 404.074C569.274 403.788 569.56 403.503 570.13 403.503L520.776 374.353C520.492 374.639 519.92 374.924 519.636 375.21C509.651 380.925 492.534 380.354 481.408 374.067L347.614 452.083C358.74 458.656 359.595 468.372 349.611 474.373L399.249 502.952C408.948 496.951 426.065 497.522 437.191 504.096Z" fill="white"/>
<path d="M458.016 418.643L464.007 425.788L453.167 428.93L442.041 435.217V437.79L443.466 438.932L446.32 439.505L475.989 432.645L483.976 433.789L492.82 438.932V448.649L488.256 451.22L492.82 453.793L483.976 459.224L479.411 456.365L475.703 458.651L463.151 462.081L456.875 455.223L468.001 452.078L479.127 445.506V442.933L477.7 442.076L474.847 441.505L445.179 448.363L437.477 446.934L428.633 441.791L428.347 432.074L432.913 429.501L428.347 426.93L437.477 421.787L442.041 424.358L445.464 422.358L458.016 418.643Z" fill="#8ECC37"/>
<path d="M570.981 426.073L437.186 504.091C426.06 497.517 408.943 497.231 398.96 502.947L349.321 474.37C359.306 468.655 358.451 458.652 347.325 452.078L481.119 374.062C492.245 380.635 509.361 380.92 519.347 375.205C519.917 374.919 520.201 374.634 520.487 374.348L570.125 403.21C569.555 403.498 568.984 403.498 568.698 403.783C558.999 409.784 559.856 419.786 570.981 426.073ZM412.367 466.367C434.905 479.513 474.557 477.513 500.803 462.366C527.049 446.936 530.186 424.073 507.65 410.927C485.113 397.782 445.46 399.782 419.215 414.927C392.969 430.36 389.831 453.222 412.367 466.367Z" fill="#8ECC37"/>
<path d="M609.779 414.932V425.79L419.5 536.673V525.812L609.779 414.932Z" fill="#333333"/>
<path d="M500.236 333.769L609.783 397.211L419.504 507.806L309.957 444.364L500.236 333.769ZM437.475 486.087L571.271 408.355C560.145 401.783 559.004 392.066 568.988 386.065C569.56 385.779 569.844 385.494 570.414 385.494L520.776 356.63C520.492 356.915 519.92 357.201 519.636 357.488C509.651 363.202 492.534 362.631 481.408 356.344L347.614 434.36C358.74 440.934 359.595 450.651 349.611 456.652L399.249 485.229C408.948 479.227 426.065 479.8 437.475 486.087Z" fill="#045137"/>
<path d="M507.653 393.21C485.118 380.065 445.463 382.065 419.219 397.211C392.974 412.643 389.834 435.505 412.372 448.365C434.909 461.511 474.562 459.51 500.808 444.364C527.053 429.217 530.191 406.07 507.653 393.21ZM464.007 407.785L452.881 410.928L441.755 417.502V420.073L443.468 420.93L442.041 420.073V417.502L453.167 410.928L464.007 407.785Z" fill="white"/>
<path d="M496.238 399.787C479.121 389.783 449.167 391.213 429.197 402.93C409.229 414.647 406.946 432.079 424.063 441.796C441.179 451.798 471.133 450.368 491.103 438.651C511.072 427.22 513.355 409.789 496.238 399.787Z" fill="#97D6C3"/>
<path d="M571.263 408.35L437.468 486.367C426.342 479.795 408.941 479.508 399.242 485.223L349.603 456.647C359.588 450.931 358.731 440.929 347.605 434.356L481.401 356.339C492.527 362.911 509.643 363.198 519.628 357.483C520.199 357.195 520.483 356.91 520.769 356.624L570.407 385.488C569.837 385.774 569.266 385.774 568.98 386.059C558.997 391.775 559.852 401.777 571.263 408.35ZM412.365 448.645C434.901 461.79 474.555 459.789 500.799 444.644C527.045 429.212 530.184 406.349 507.646 393.205C485.109 380.058 445.456 382.059 419.21 397.205C392.965 412.638 389.827 435.499 412.365 448.645Z" fill="white"/>
<path d="M419.788 507.806L419.504 518.666L309.957 455.51V444.649L419.788 507.806Z" fill="#045137"/>
<path d="M609.779 397.209V408.069L419.5 518.665L419.784 507.804L609.779 397.209Z" fill="#333333"/>
</g>
</g>
<defs>
<clipPath id="clip0_1447_56080">
<rect width="452" height="448" fill="white" transform="translate(-5.33496 -0.00976562)"/>
</clipPath>
</defs>
</svg>
