<svg width="23" height="17" viewBox="0 0 23 17" fill="none" xmlns="http://www.w3.org/2000/svg">
<path d="M6.70313 7.90468C7.66993 7.90468 8.43224 8.23934 8.99001 8.90866C9.54778 9.5408 9.82663 10.4332 9.82663 11.586C9.82663 12.8131 9.38042 13.9472 8.48799 14.9884C7.63274 15.9923 6.5544 16.4943 5.25293 16.4943C3.8771 16.4943 2.79876 16.0481 2.01788 15.1557C1.27419 14.2261 0.902344 12.9246 0.902344 11.2513C0.902344 9.09458 1.38574 7.16098 2.35254 5.45048C3.31934 3.73999 4.75097 2.08527 6.64739 0.486328L8.82265 2.55008C6.55438 4.40931 5.2715 6.30573 4.97402 8.23934C5.45742 8.01623 6.03381 7.90468 6.70313 7.90468ZM18.9741 7.90468C19.9409 7.90468 20.7032 8.23934 21.261 8.90866C21.8187 9.5408 22.0976 10.4332 22.0976 11.586C22.0976 12.8131 21.6514 13.9472 20.7589 14.9884C19.9037 15.9923 18.8254 16.4943 17.5239 16.4943C16.1481 16.4943 15.0697 16.0481 14.2888 15.1557C13.5451 14.2261 13.1733 12.9246 13.1733 11.2513C13.1733 9.09458 13.6567 7.16098 14.6235 5.45048C15.5903 3.73999 17.0219 2.08527 18.9183 0.486328L21.0936 2.55008C18.8253 4.40931 17.5425 6.30573 17.245 8.23934C17.7284 8.01623 18.3048 7.90468 18.9741 7.90468Z" fill="#333333"/>
</svg>
