<svg width="528" height="464" viewBox="0 0 528 464" fill="none" xmlns="http://www.w3.org/2000/svg">
<path d="M457.651 61.0029L0.0351562 325.46L461.419 591.486L919.977 326.716L457.651 61.0029Z" fill="#F1F9F6"/>
<path d="M461.733 652.731L0.0351562 386.077V325.459L461.419 591.485L461.733 652.731Z" fill="#88C8B0"/>
<path d="M461.736 652.729L920.292 387.644L919.978 326.714L461.422 591.483L461.736 652.729Z" fill="#333333"/>
<path d="M259.456 306.93C259.456 307.244 259.142 307.558 258.828 307.872C258.828 307.872 258.828 307.872 258.828 308.187C258.514 308.501 258.202 308.815 257.887 309.129C257.573 309.443 257.573 309.443 257.259 309.757C256.945 309.757 256.945 310.071 256.631 310.071L204.179 340.537C203.551 340.851 202.922 341.166 202.294 341.48C201.98 341.48 201.666 341.794 201.666 341.794C201.352 341.794 201.038 342.108 200.723 342.108C200.409 342.108 199.781 342.422 199.467 342.422H199.153C198.526 342.422 197.898 342.422 197.584 342.422H197.27C196.641 342.422 196.013 342.422 195.699 342.422H195.385C194.757 342.422 194.442 342.108 193.814 342.108H193.5C192.872 342.108 192.558 341.794 192.243 341.794H191.929C191.301 341.48 190.987 341.48 190.359 341.166L137.594 310.7C136.023 309.757 135.081 308.815 134.767 307.558C134.767 307.244 134.453 306.93 134.453 306.302V326.717C134.453 328.288 135.395 329.858 137.28 330.801L190.045 361.267C190.359 361.581 190.987 361.895 191.615 361.895H191.929C192.244 361.895 192.558 362.209 192.872 362.209C193.186 362.209 193.186 362.209 193.5 362.209H193.814H194.128C194.442 362.209 194.757 362.209 195.071 362.523H195.385H195.699H196.013C196.327 362.523 196.641 362.523 196.955 362.523H197.27H197.584H197.898C198.212 362.523 198.526 362.523 199.153 362.523H199.467C199.781 362.523 200.095 362.523 200.409 362.523H200.723C201.038 362.523 201.352 362.209 201.666 362.209C201.98 362.209 201.98 362.209 202.294 362.209C202.294 362.209 202.294 362.209 202.608 362.209C203.237 361.895 203.865 361.581 204.493 361.267L256.945 330.801C257.259 330.801 257.259 330.487 257.573 330.487C257.887 330.173 258.202 330.173 258.202 329.858C258.514 329.544 258.514 329.544 258.828 329.23C258.828 329.23 258.828 329.23 258.828 328.916C258.828 328.916 258.828 328.916 258.828 328.602C258.828 328.602 258.828 328.288 259.142 328.288C259.142 327.974 259.456 327.974 259.456 327.66V327.345C259.456 327.031 259.456 327.031 259.456 326.717V306.302C259.771 306.302 259.771 306.616 259.456 306.93Z" fill="#333333"/>
<path d="M256.947 301.907C261.031 304.104 261.031 307.874 256.947 310.073L204.497 340.539C200.728 342.736 194.132 342.736 190.363 340.539L137.597 310.073C133.514 307.874 133.514 304.104 137.597 301.907L190.049 271.441C193.818 269.242 200.413 269.242 204.183 271.441L256.947 301.907Z" fill="#97D6C3"/>
<path d="M149.214 325.774C149.843 326.088 150.157 327.029 150.157 327.657V329.228C150.157 329.856 149.529 330.17 148.9 329.856L143.247 326.402C142.619 326.088 142.305 325.146 142.305 324.517V322.947C142.305 322.319 142.933 322.004 143.561 322.319L149.214 325.774Z" fill="#FCFCFC"/>
<path d="M182.515 344.622C183.143 344.936 183.457 345.879 183.457 346.507V348.077C183.457 348.706 182.829 349.02 182.201 348.706L176.548 345.25C175.92 344.936 175.605 343.994 175.605 343.367V341.796C175.605 341.168 176.234 340.854 176.862 341.168L182.515 344.622Z" fill="#FCFCFC"/>
<path d="M162.402 331.117C164.286 332.373 166.171 335.2 166.171 337.399C166.171 339.597 164.6 340.539 162.402 339.597C160.517 338.342 158.633 335.515 158.633 333.316C158.633 330.803 160.203 329.86 162.402 331.117Z" fill="#FCFCFC"/>
<path d="M259.452 241.919C259.452 242.233 259.138 242.547 258.823 242.861C258.823 242.861 258.823 242.861 258.823 243.175C258.509 243.488 258.195 243.802 257.881 244.116C257.567 244.43 257.567 244.43 257.253 244.744C256.939 244.744 256.939 245.059 256.624 245.059L204.174 275.524C203.546 275.839 202.918 276.153 202.289 276.467C201.975 276.467 201.661 276.781 201.661 276.781C201.347 276.781 201.033 277.095 200.719 277.095C200.405 277.095 199.776 277.409 199.462 277.409H199.148C198.52 277.409 197.892 277.409 197.577 277.409H197.263C196.635 277.409 196.007 277.409 195.693 277.409H195.378C194.75 277.409 194.438 277.095 193.809 277.095H193.495C192.867 277.095 192.553 276.781 192.239 276.781H191.925C191.296 276.467 190.982 276.467 190.354 276.153L137.588 245.687C135.704 244.43 134.762 243.175 134.762 241.605V262.02C134.762 263.589 135.704 265.16 137.588 266.102L190.354 296.568C190.668 296.882 191.296 297.196 191.925 297.196H192.239C192.553 297.196 192.867 297.51 193.181 297.51C193.495 297.51 193.495 297.51 193.809 297.51H194.124H194.438C194.75 297.51 195.064 297.51 195.378 297.825H195.693H196.007H196.321C196.635 297.825 196.949 297.825 197.263 297.825H197.577H197.892H198.206C198.52 297.825 198.834 297.825 199.462 297.825H199.776C200.09 297.825 200.405 297.825 200.719 297.825H201.033C201.347 297.825 201.661 297.51 201.975 297.51C202.289 297.51 202.289 297.51 202.604 297.51C202.604 297.51 202.604 297.51 202.918 297.51C203.546 297.196 204.174 296.882 204.801 296.568L257.253 266.102C257.567 266.102 257.567 265.788 257.881 265.788C258.195 265.474 258.509 265.474 258.509 265.16C258.823 264.846 258.823 264.846 259.138 264.531C259.138 264.531 259.138 264.531 259.138 264.217C259.138 264.217 259.138 264.217 259.138 263.903C259.138 263.903 259.138 263.589 259.452 263.589C259.452 263.275 259.766 263.275 259.766 262.962V262.648C259.766 262.334 259.766 262.334 259.766 262.02V241.605C259.766 241.291 259.766 241.605 259.452 241.919Z" fill="#333333"/>
<path d="M256.947 236.895C261.031 239.094 261.031 242.864 256.947 245.061L204.497 275.527C200.728 277.726 194.132 277.726 190.363 275.527L137.597 245.061C133.514 242.864 133.514 239.094 137.597 236.895L190.049 206.429C193.818 204.232 200.413 204.232 204.183 206.429L256.947 236.895Z" fill="#D05F0D"/>
<path d="M454.209 247.884L629.151 348.704L452.952 450.465L278.324 349.646L454.209 247.884Z" fill="#D5EFE7"/>
<path d="M278.324 307.242V332.368L452.952 433.502V408.376L278.324 307.242Z" fill="#D5EFE7"/>
<path d="M629.144 306.302L628.83 331.743L452.945 433.506V408.378L629.144 306.302Z" fill="#D5EFE7"/>
<path d="M454.209 205.482L629.151 306.303L452.952 408.379L278.324 307.245L454.209 205.482Z" fill="#D5EFE7"/>
<path d="M278.324 307.245V332.371L452.952 433.505V408.379L278.324 307.245Z" fill="#4E5A56"/>
<path d="M629.144 306.304L628.83 331.745L452.945 433.508V408.38L629.144 306.304Z" fill="#333333"/>
<path d="M278.324 264.842V290.283L452.952 391.102V365.976L278.324 264.842Z" fill="#D5EFE7"/>
<path d="M629.144 263.901L628.83 289.341L452.945 391.104V365.976L629.144 263.901Z" fill="#D5EFE7"/>
<path d="M454.209 163.396L629.151 263.902L452.952 365.978L278.324 264.845L454.209 163.396Z" fill="#D5EFE7"/>
<path d="M278.324 264.847V290.288L452.952 391.107V365.981L278.324 264.847Z" fill="#4E5A56"/>
<path d="M629.144 263.903L628.83 289.343L452.945 391.106V365.978L629.144 263.903Z" fill="#333333"/>
<path d="M278.324 222.446V247.888L452.952 349.02V323.581L278.324 222.446Z" fill="#D5EFE7"/>
<path d="M629.144 221.815L628.83 247.257L452.945 349.019V323.578L629.144 221.815Z" fill="#D5EFE7"/>
<path d="M454.209 120.998L629.151 221.818L452.952 323.58L278.324 222.446L454.209 120.998Z" fill="#D5EFE7"/>
<path d="M278.324 222.446V247.888L452.952 349.02V323.581L278.324 222.446Z" fill="#4E5A56"/>
<path d="M629.144 221.815L628.83 247.257L452.945 349.019V323.578L629.144 221.815Z" fill="#333333"/>
<path d="M278.324 180.361V205.487L452.952 306.621V281.181L278.324 180.361Z" fill="#D5EFE7"/>
<path d="M629.144 179.418L628.83 204.858L452.945 306.62V281.179L629.144 179.418Z" fill="#D5EFE7"/>
<path d="M278.324 180.357V205.485L452.952 306.617V281.178L278.324 180.357Z" fill="#4E5A56"/>
<path d="M629.144 179.414L628.83 204.854L452.945 306.616V281.175L629.144 179.414Z" fill="#333333"/>
<path d="M570.09 348.708C572.289 347.452 574.488 348.394 574.488 351.22C574.488 354.047 572.603 357.188 570.404 358.445L483.718 408.382C481.519 409.638 479.32 408.696 479.32 405.871C479.32 403.043 481.205 399.902 483.404 398.645L570.09 348.708Z" fill="#88C8B0"/>
<path d="M570.09 306.305C572.289 305.048 574.488 305.991 574.488 308.818C574.488 311.643 572.603 314.785 570.404 316.041L483.718 365.98C481.519 367.237 479.32 366.294 479.32 363.467C479.32 360.64 481.205 357.5 483.404 356.244L570.09 306.305Z" fill="#88C8B0"/>
<path d="M564.119 164.655C568.517 167.169 568.517 171.252 564.119 173.765L461.73 233.127C457.332 235.638 450.423 235.638 446.339 233.127L343.322 173.765C338.924 171.252 338.924 167.169 343.322 164.97L445.711 105.609C450.109 103.096 457.018 103.096 461.102 105.609L564.119 164.655Z" fill="#97D6C3"/>
<mask id="mask0_1447_56167" style="mask-type:luminance" maskUnits="userSpaceOnUse" x="340" y="169" width="4" height="17">
<path d="M340.219 180.674V169.053C340.219 170.623 341.161 172.194 343.36 173.451V185.072C341.161 183.815 340.219 182.245 340.219 180.674Z" fill="white"/>
</mask>
<g mask="url(#mask0_1447_56167)">
<path d="M343.36 173.451V185.072C341.161 183.815 340.219 182.245 340.219 180.674V169.053C340.219 170.623 341.161 172.194 343.36 173.451Z" fill="#045137"/>
</g>
<path d="M564.125 173.45V185.071L461.734 244.433V233.126L564.125 173.45Z" fill="#333333"/>
<path d="M446.347 233.126V244.433L343.328 185.071V173.45L446.347 233.126Z" fill="#4E5A56"/>
<mask id="mask1_1447_56167" style="mask-type:luminance" maskUnits="userSpaceOnUse" x="446" y="233" width="16" height="14">
<path d="M461.778 233.125V244.746C457.38 247.259 450.47 247.259 446.387 244.746V233.125C450.785 235.324 457.694 235.324 461.778 233.125Z" fill="white"/>
</mask>
<g mask="url(#mask1_1447_56167)">
<path d="M461.783 233.124V244.745C461.154 245.059 460.212 245.374 459.27 245.688V234.066C460.212 233.752 461.154 233.438 461.783 233.124Z" fill="#045137"/>
<path d="M459.58 234.067V245.689C458.954 246.003 458.325 246.003 457.383 246.317V234.696C458.011 234.382 458.954 234.382 459.58 234.067Z" fill="#045137"/>
<path d="M457.385 234.696V246.318C457.071 246.318 456.443 246.318 456.129 246.632V235.01C456.443 234.696 457.071 234.696 457.385 234.696Z" fill="#045137"/>
<path d="M456.116 234.696V246.318C455.802 246.318 455.174 246.318 454.859 246.318V234.696C455.174 234.696 455.488 234.696 456.116 234.696Z" fill="#045137"/>
<path d="M454.874 234.696V246.318C454.56 246.318 454.245 246.318 453.617 246.318V234.696C453.931 235.01 454.56 235.01 454.874 234.696Z" fill="#045137"/>
<path d="M453.614 234.695V246.317C453.3 246.317 452.986 246.317 452.672 246.317V234.695C452.986 234.695 453.3 234.695 453.614 234.695Z" fill="#045137"/>
<path d="M452.669 234.696V246.318C452.355 246.318 452.041 246.318 451.727 246.318V234.696C452.041 234.696 452.355 234.696 452.669 234.696Z" fill="#045137"/>
<path d="M451.407 234.699V246.32C451.093 246.32 450.779 246.32 450.465 246.006V234.385C450.779 234.699 451.093 234.699 451.407 234.699Z" fill="#045137"/>
<path d="M450.47 234.382V246.003C450.156 246.003 449.841 245.689 449.215 245.689V234.067C449.841 234.382 450.156 234.382 450.47 234.382Z" fill="#045137"/>
<path d="M449.21 234.066V245.687C448.896 245.687 448.267 245.373 447.953 245.373V233.752C448.267 234.066 448.896 234.066 449.21 234.066Z" fill="#045137"/>
<path d="M447.957 233.753V245.375C447.329 245.06 447.015 244.746 446.387 244.746V233.125C447.015 233.439 447.329 233.439 447.957 233.753Z" fill="#045137"/>
</g>
<path d="M502.248 137.643C528.946 153.033 528.946 178.159 502.562 193.549C476.18 208.939 432.836 208.939 406.14 193.549C379.443 178.159 379.443 153.033 405.826 137.643C432.208 122.253 475.238 122.253 502.248 137.643Z" fill="#CBEBE1"/>
<path d="M405.84 148.322C432.223 132.932 475.565 132.932 502.263 148.322C513.255 154.603 519.852 162.77 521.736 170.936C524.562 159.001 517.967 146.751 502.263 137.643C475.565 122.253 432.538 122.253 405.84 137.643C390.45 146.751 383.855 159.001 386.681 170.622C388.565 162.456 394.847 154.603 405.84 148.322Z" fill="#333333"/>
<path d="M723.362 -48.0293L656.197 -21.2033L723.362 -48.0127L694.558 29.5068L644.829 90.5217L574.772 136.179L574.224 136.528L487.563 159.947L397.428 149.725L376.586 147.348H376.536L299.399 105.547L242.09 45.8949V45.8783L210.394 -14.5716L198.361 -89.5314L195.419 -107.897L193.906 -117.338L211.574 -198.647L255.486 -274.704L318.812 -333.691L406.736 -367.664L482.078 -372.75L572.312 -349.896H572.329V-349.88L638.812 -306.682L692.481 -241.728L713.007 -172.752L729.595 -116.956L723.362 -48.0293Z" fill="#23322D" style="mix-blend-mode:multiply"/>
<path d="M448.071 25.3185L449.168 37.4517L447.057 41.5902L438.697 58.0116L430.337 54.5379L413.948 64.2943V76.4939L402.447 94.9762L391.278 91.8349L397.211 105.082L390.247 111.364L415.228 144.39L394.386 142.013L394.353 141.997L394.319 141.963L371.765 124.96L358.169 102.655L339.338 77.541L335.083 53.8398L332.706 40.593L325.393 38.2661L304.118 31.518L300.279 11.2905L287.68 5.83889L279.37 2.23218L267.852 -22.5162L268.234 -23.0148L282.494 -41.3476L279.536 -58.6664L278.323 -65.7635L282.844 -76.218L302.373 -85.2764L317.016 -74.1238H342.13L367.576 -53.5472L379.078 -59.4809L393.172 -50.4225L393.721 -50.0735L394.436 -47.7133L394.469 -47.6302L394.552 -47.3144L400.702 -27.0537L410.824 -25.2254L421.96 -23.2143L426.148 -16.2501L446.027 -20.771L467.301 2.23218L447.772 22.1106L448.071 25.3185Z" fill="#D05F0D"/>
<path d="M694.947 -39.8192V-39.8026L666.144 37.7168L616.414 98.7318L546.357 144.389L568.579 112.643L565.239 102.255L560.203 86.6484L578.901 72.3712L592.065 62.3156L589.555 49.0854L587.511 38.3152L583.788 18.6528L582.84 13.6831L603.799 -8.95441L571.521 -28.2512L555.532 -13.9573L551.809 -10.6331L539.227 -16.5002L528.64 -19.7912L501.498 -28.2512L508.213 -40.8165L507.864 -41.2154L486.406 -65.9804L490.611 -77.349L494.783 -88.6179L488.584 -101.034L486.406 -105.388L497.11 -122.574L514.08 -149.832H530.003L533.36 -177.506L551.809 -185.9L555.998 -181.694L565.122 -184.138L595.605 -192.299L615.55 -197.634V-174.996L641.113 -160.087V-160.071L645.733 -157.378L653.279 -173.318L676.764 -159.057L684.593 -164.542L701.18 -108.746L694.947 -39.8192Z" fill="#D05F0D"/>
<path d="M723.358 -46.6669V-46.6503L694.554 30.8692L644.824 91.8841L574.768 137.541L596.99 105.796L593.649 95.4078L588.613 79.8008L607.311 65.5236L620.475 55.4679L617.965 42.2378L615.921 31.4675L612.198 11.8051L611.25 6.83548L632.209 -15.8021L599.932 -35.0988L583.942 -20.8049L580.219 -17.4808L567.637 -23.3479L557.05 -26.6388L529.908 -35.0988L536.623 -47.6642L536.274 -48.063L514.816 -72.828L519.021 -84.1967L523.193 -95.4656L516.994 -107.881L514.816 -112.236L525.52 -129.422L542.49 -156.68H558.413L561.77 -184.354L580.219 -192.747L584.408 -188.542L593.533 -190.985L624.015 -199.146L643.96 -204.481V-181.844L669.523 -166.935V-166.918L674.143 -164.226L681.689 -180.165L705.174 -165.905L713.003 -171.389L729.59 -115.593L723.358 -46.6669Z" fill="#D5EFE7"/>
<path d="M435.954 30.9044L437.051 43.0376L432.064 51.4477L426.114 63.1321L418.219 60.1238L401.831 69.8802V82.0799L390.33 100.562L379.16 97.4209L385.343 108.972L378.13 116.95L403.111 149.976L382.269 147.599L382.235 147.582L382.202 147.549L359.648 130.546L346.052 108.241L327.22 83.127L322.966 59.4257L320.589 46.1789L313.276 43.852L292.001 37.104L288.162 16.8764L275.563 11.4248L267.253 7.81812L255.734 -16.9303L256.117 -17.4289L270.377 -35.7616L267.419 -53.0805L266.205 -60.1776L270.726 -70.6321L290.256 -79.6904L304.899 -68.5379H330.013L355.459 -47.9613L366.961 -53.8949L381.055 -44.8366L381.604 -44.4876L382.318 -42.1274L382.352 -42.0443L382.435 -41.7285L388.584 -21.4678L398.707 -19.6395L409.842 -17.6283L414.031 -10.6642L433.909 -15.1851L455.184 7.81812L435.655 27.6966L435.954 30.9044Z" fill="#D5EFE7"/>
<path d="M461.746 233.126V244.747C457.348 247.26 450.439 247.26 446.355 244.747V233.126C450.753 235.325 457.663 235.325 461.746 233.126Z" fill="#333333"/>
<path d="M340.203 180.674V169.053C340.203 170.623 341.146 172.194 343.344 173.451V185.072C341.146 183.815 340.203 182.245 340.203 180.674Z" fill="#4E5A56"/>
<path d="M523.282 459.257C523.282 459.571 523.282 459.571 523.282 459.257C523.282 459.571 522.968 459.885 522.654 460.2C522.654 460.2 522.654 460.2 522.654 460.514C522.34 460.828 522.026 461.14 521.712 461.454C521.398 461.769 521.398 461.769 521.084 462.083C520.769 462.083 520.769 462.397 520.455 462.397L468.003 492.863C467.375 493.177 466.747 493.491 466.12 493.805C465.806 493.805 465.492 494.119 465.492 494.119C465.178 494.119 464.864 494.433 464.549 494.433C464.235 494.433 463.607 494.748 463.293 494.748H462.979C462.351 494.748 461.722 494.748 461.408 494.748H461.094C460.466 494.748 459.838 494.748 459.523 494.748H459.209C458.581 494.748 458.267 494.433 457.639 494.433H457.324C456.698 494.433 456.384 494.119 456.07 494.119H455.755C455.127 493.805 454.813 493.805 454.185 493.491L401.419 463.025C399.848 462.083 398.906 461.14 398.591 459.885C398.591 459.571 398.277 459.257 398.277 458.629V479.044C398.277 480.615 399.22 482.184 401.105 483.126L453.871 513.592C454.185 513.906 454.813 514.221 455.441 514.221H455.755C456.07 514.221 456.384 514.535 456.698 514.535C457.01 514.535 457.01 514.535 457.324 514.535H457.639H457.953C458.267 514.535 458.581 514.535 458.895 514.849H459.209H459.523H459.837C460.152 514.849 460.466 514.849 460.78 514.849H461.094H461.408H461.722C462.036 514.849 462.351 514.849 462.979 514.849H463.293C463.607 514.849 463.921 514.849 464.235 514.849H464.549C464.864 514.849 465.178 514.535 465.492 514.535C465.806 514.535 465.806 514.535 466.12 514.535C466.12 514.535 466.12 514.535 466.434 514.535C467.061 514.221 467.689 513.906 468.317 513.592L520.769 483.126C521.084 483.126 521.083 482.812 521.398 482.812C521.712 482.498 522.026 482.498 522.026 482.184C522.34 481.87 522.34 481.87 522.654 481.556C522.654 481.556 522.654 481.556 522.654 481.242C522.654 481.242 522.654 481.242 522.654 480.929C522.654 480.929 522.654 480.615 522.968 480.615C522.968 480.301 523.282 480.301 523.282 479.987V479.673C523.282 479.358 523.282 479.358 523.282 479.044V458.629C523.282 458.629 523.282 458.943 523.282 459.257Z" fill="#333333"/>
<path d="M520.447 454.232C524.531 456.431 524.531 460.199 520.447 462.398L467.995 492.864C464.228 495.063 457.632 495.063 453.863 492.864L401.097 462.398C397.015 460.199 397.015 456.431 401.097 454.232L453.549 423.766C457.318 421.567 463.913 421.567 467.683 423.766L520.447 454.232Z" fill="#97D6C3"/>
<path d="M523.275 394.559C523.275 394.874 522.961 395.186 522.647 395.5C522.647 395.5 522.647 395.5 522.647 395.814C522.333 396.128 522.019 396.443 521.705 396.757C521.392 397.071 521.392 397.071 521.078 397.385C520.764 397.385 520.764 397.699 520.45 397.699L467.998 428.165C467.369 428.479 466.741 428.793 466.113 429.108C465.799 429.108 465.485 429.422 465.485 429.422C465.171 429.422 464.856 429.736 464.542 429.736C464.228 429.736 463.6 430.05 463.286 430.05H462.972C462.343 430.05 461.717 430.05 461.403 430.05H461.088C460.46 430.05 459.832 430.05 459.518 430.05H459.204C458.575 430.05 458.261 429.736 457.633 429.736H457.319C456.691 429.736 456.376 429.422 456.062 429.422H455.748C455.12 429.107 454.806 429.108 454.178 428.793L401.413 398.327C399.528 397.071 398.586 395.814 398.586 394.245V414.661C398.586 416.23 399.528 417.8 401.413 418.743L454.178 449.209C454.492 449.523 455.12 449.837 455.748 449.837H456.062C456.376 449.837 456.691 450.151 457.005 450.151C457.319 450.151 457.319 450.151 457.633 450.151H457.947H458.261C458.575 450.151 458.89 450.151 459.204 450.465H459.518H459.832H460.146C460.46 450.465 460.774 450.465 461.088 450.465H461.403H461.717H462.031C462.345 450.465 462.657 450.465 463.286 450.465H463.6C463.914 450.465 464.228 450.465 464.542 450.465H464.856C465.171 450.465 465.485 450.151 465.799 450.151C466.113 450.151 466.113 450.151 466.427 450.151C466.427 450.151 466.427 450.151 466.741 450.151C467.369 449.837 467.998 449.523 468.626 449.209L521.078 418.743C521.392 418.743 521.392 418.429 521.705 418.429C522.019 418.114 522.333 418.114 522.333 417.8C522.647 417.486 522.647 417.486 522.961 417.172C522.961 417.172 522.961 417.172 522.961 416.858C522.961 416.858 522.961 416.858 522.961 416.544C522.961 416.544 522.961 416.23 523.275 416.23C523.275 415.916 523.589 415.916 523.589 415.601V415.287C523.589 414.973 523.589 414.973 523.589 414.661V394.245C523.275 393.931 523.275 394.245 523.275 394.559Z" fill="#333333"/>
<path d="M520.447 389.22C524.531 391.417 524.531 395.187 520.447 397.385L467.995 427.851C464.228 430.05 457.632 430.05 453.863 427.851L401.097 397.385C397.015 395.187 397.015 391.417 401.097 389.22L453.549 358.754C457.318 356.555 463.913 356.555 467.683 358.754L520.447 389.22Z" fill="#D05F0D"/>
<g style="mix-blend-mode:overlay">
<path d="M137.181 115.09C139.74 118.979 143.38 120.725 145.724 119.162C153.353 114.043 172.467 105.816 203.531 122.27C203.847 122.437 204.163 122.603 204.495 122.786C237.022 140.42 256.834 169.889 264.962 184.133C267.571 188.704 271.776 191.463 274.901 190.632C278.807 189.585 279.372 183.451 276.081 177.734C265.859 160.033 242.341 125.678 204.728 105.699C204.362 105.5 203.98 105.3 203.614 105.118C168.012 86.6685 145.89 96.1258 136.649 102.425C133.807 104.37 134.039 110.32 137.164 115.073L137.181 115.09Z" fill="#333333"/>
<path d="M155.259 149.246C157.786 153.251 161.475 155.229 163.935 153.866C170.318 150.359 184.063 145.788 203.127 156.01C203.343 156.127 203.576 156.26 203.809 156.376C222.839 166.864 235.97 186.41 242.186 197.33C244.729 201.784 248.784 204.46 251.776 203.662C255.566 202.648 256.114 196.582 252.857 190.947C244.563 176.554 227.56 151.772 203.044 138.841C179.409 126.442 162.855 131.993 154.96 136.531C151.968 138.259 152.101 144.243 155.226 149.179L155.259 149.246Z" fill="#333333"/>
<path d="M233.265 218.388H233.298C237.171 217.607 237.786 211.54 234.578 205.806C228.445 194.87 217.541 178.814 202.948 170.637C189.502 163.091 179.613 165.451 173.912 168.476C170.671 170.204 170.904 176.637 174.427 181.789L174.46 181.822C177.053 185.612 180.61 187.424 183.037 186.177C186.976 184.149 193.857 182.487 202.865 187.64C212.389 193.091 219.902 204.41 224.123 211.989C226.517 216.294 230.373 218.953 233.281 218.372L233.265 218.388Z" fill="#333333"/>
<path d="M187.356 211.574C187.306 221.164 194.22 233.147 202.88 238.366C211.639 243.652 218.852 240.062 218.919 230.272C218.985 220.482 211.838 208.349 203.079 203.263C194.403 198.227 187.406 201.967 187.356 211.574Z" fill="#333333"/>
</g>
<path d="M182.587 208.699L182.637 208.666C185.247 208.1 188.438 208.699 191.911 210.693C200.82 215.796 208.05 227.996 207.984 237.852C207.951 241.641 206.854 244.5 204.992 246.312L204.959 246.328C203.995 247.259 201.867 248.423 200.554 248.755L195.069 251.763L173.047 213.751L179.08 210.51C180.061 209.613 181.224 208.998 182.554 208.682L182.587 208.699Z" fill="#97D6C3"/>
<path d="M162.326 175.774C168.11 172.699 178.132 170.289 191.795 177.835C206.604 186.029 217.657 202.167 223.889 213.154C227.147 218.921 226.515 225.038 222.593 225.836L220.549 226.966L215.13 229.991L181.34 191.647C177.201 191.347 173.894 192.411 171.567 193.591C169.107 194.854 165.5 193.043 162.874 189.237L162.841 189.203C161.894 187.824 161.179 186.344 163.523 183.037L154.148 181.026L162.309 175.79L162.326 175.774Z" fill="#97D6C3"/>
<path d="M144.374 142.565C152.817 138.061 169.122 133.789 191.909 145.574C216.791 158.488 234.043 183.519 242.453 197.996C245.744 203.663 245.196 209.83 241.34 210.877C241.057 210.96 238.996 212.24 238.697 212.256L232.946 215.464L206.32 179.231L169.504 156.892C161.676 156.826 155.792 159.136 152.202 161.114C149.709 162.494 145.969 160.516 143.41 156.493L143.36 156.427C143.36 156.427 143.277 156.277 143.227 156.211L140.867 156.144L136.113 148.333L140.784 144.709L144.357 142.598L144.374 142.565Z" fill="#97D6C3"/>
<path d="M117.855 114.21L124.57 109.373C133.944 102.991 156.399 93.3507 192.499 111.8C192.865 111.983 193.247 112.182 193.63 112.382C231.791 132.343 255.675 166.881 266.047 184.682C268.623 189.103 269.304 193.076 267.459 195.486L265.614 197.347L264.551 197.945C264.152 198.261 262.456 199.092 261.941 199.242L255.725 202.533L244.739 187.408L199.48 135.368L174.134 121.739C153.291 116.022 139.878 122.088 133.762 126.21C131.385 127.806 127.695 126.06 125.102 122.155C123.839 120.227 123.041 118.132 122.725 116.171L117.855 114.243V114.21Z" fill="#97D6C3"/>
<path d="M118.34 126.875C120.9 130.765 124.539 132.51 126.883 130.947C134.512 125.828 153.626 117.601 184.69 134.056C185.006 134.222 185.322 134.388 185.654 134.571C218.181 152.205 237.993 181.674 246.121 195.918C248.73 200.489 252.935 203.248 256.06 202.417C259.966 201.37 260.531 195.237 257.24 189.519C247.018 171.818 223.5 137.463 185.887 117.485C185.521 117.285 185.139 117.086 184.773 116.903C149.172 98.4371 127.049 107.911 117.825 114.21C114.983 116.155 115.215 122.105 118.34 126.859V126.875Z" fill="#F1F9F6"/>
<path d="M136.435 161.032C138.961 165.037 142.651 167.015 145.111 165.652C151.493 162.145 165.239 157.575 184.303 167.796C184.519 167.913 184.752 168.046 184.984 168.162C204.015 178.65 217.146 198.196 223.362 209.116C225.905 213.57 229.96 216.246 232.952 215.448C236.742 214.434 237.29 208.368 234.032 202.733C225.739 188.34 208.735 163.558 184.22 150.627C160.585 138.228 144.031 143.779 136.136 148.317C133.144 150.045 133.277 156.029 136.402 160.965L136.435 161.032Z" fill="#F1F9F6"/>
<path d="M214.433 230.174H214.466C218.339 229.393 218.954 223.326 215.746 217.592C209.613 206.656 198.709 190.6 184.116 182.423C170.67 174.877 160.781 177.237 155.08 180.262C151.839 181.991 152.071 188.423 155.595 193.575L155.628 193.608C158.221 197.398 161.778 199.21 164.205 197.963C168.144 195.935 175.025 194.273 184.033 199.426C193.557 204.877 201.07 216.196 205.291 223.775C207.685 228.08 211.541 230.739 214.449 230.158L214.433 230.174Z" fill="#F1F9F6"/>
<path d="M168.512 223.343C168.462 232.95 175.376 244.917 184.036 250.136C192.795 255.421 200.008 251.831 200.075 242.041C200.141 232.252 192.994 220.119 184.235 215.033C175.559 209.997 168.562 213.736 168.512 223.343Z" fill="#F1F9F6"/>
</svg>
