<svg width="24" height="25" viewBox="0 0 24 25" fill="none" xmlns="http://www.w3.org/2000/svg">
<path d="M5.3163 19.6669C5.92462 18.2337 7.34492 17.2285 9 17.2285H15C16.6551 17.2285 18.0754 18.2337 18.6837 19.6669M16 9.72852C16 11.9377 14.2091 13.7285 12 13.7285C9.79086 13.7285 8 11.9377 8 9.72852C8 7.51938 9.79086 5.72852 12 5.72852C14.2091 5.72852 16 7.51938 16 9.72852ZM22 12.2285C22 17.7514 17.5228 22.2285 12 22.2285C6.47715 22.2285 2 17.7514 2 12.2285C2 6.70567 6.47715 2.22852 12 2.22852C17.5228 2.22852 22 6.70567 22 12.2285Z" stroke="#31302B" stroke-width="2" strokeLinecap="round" stroke-linejoin="round"/>
</svg>
